<svg xmlns="http://www.w3.org/2000/svg" width="50" height="28" viewBox="0 0 50 28">
  <g fill="none" fill-opacity=".25" opacity=".5">
    <path fill="#E6E6E6" d="M28.989899,17.7672727 C29.0909091,17.7163636 30.1515152,17.36 30.2020202,17.4109091 L29.9494949,18.5818182 L28.9393939,17.7672727 L28.989899,17.7672727 L28.989899,17.7672727 Z M50,3.81818182 L49.6464646,3.10545455 L49.6464646,3.05454545 C49.5959596,3.00363636 49.5959596,3.00363636 49.5454545,3.05454545 L48.9393939,3.56363636 L48.9393939,3.66545455 L49.040404,3.86909091 L49.3939394,4.48 L49.5454545,4.27636364 L49.8484848,3.97090909 L49.9494949,3.86909091 L49.9494949,3.81818182 L50,3.81818182 L50,3.81818182 Z"/>
    <path fill="#C4FCF5" d="M0,11.2 C0.101010101,11.0472727 0.707070707,10.1309091 0.757575758,10.1818182 L1.26262626,11.2 L0,11.2 Z M37.3737374,21.3818182 C37.4747475,21.2290909 38.0808081,20.3127273 38.1313131,20.3636364 L38.6363636,21.3818182 L37.3737374,21.3818182 Z M20.2020202,26.8290909 C19.9926103,26.615479 19.7904731,26.3947452 19.5959596,26.1672727 L19.0909091,26.8290909 L19.0909091,26.9309091 L19.2424242,27.0836364 L19.6464646,27.5927273 L19.6969697,27.5927273 L19.7979798,27.3890909 L20,27.1345455 L20.0505051,27.0327273 L20.1515152,26.9309091 L20.1515152,26.8290909 L20.2020202,26.8290909 L20.2020202,26.8290909 Z M26.3131313,1.52727273 L26.3636364,1.47636364 L26.5656566,0.458181818 L26.2626263,0.407272727 L25.6565657,0.254545455 L25.6060606,0.254545455 L25.6060606,0.305454545 C25.6060606,0.661818182 25.5050505,0.967272727 25.4040404,1.32363636 C25.7070707,1.32363636 26.0606061,1.42545455 26.3131313,1.52727273 L26.3131313,1.52727273 Z"/>
  </g>
</svg>
