<svg xmlns="http://www.w3.org/2000/svg" width="296" height="86" viewBox="0 0 296 86">
  <defs>
    <linearGradient id="covid19-logo-a" x1="0%" x2="100%" y1="54.221%" y2="45.779%">
      <stop offset="0%" stop-color="#09F9FC"/>
      <stop offset="100%" stop-color="#9899FF"/>
    </linearGradient>
  </defs>
  <g fill="none" fill-rule="evenodd">
    <path fill="url(#covid19-logo-a)" d="M38.0008923,84 L38.0008923,86 L36.0008923,86 L36,84.159 L36.367,84 L38.0008923,84 Z M32.0013841,85.5162346 L32.0008923,86 L30.0008923,86 L30.0004905,85.9773393 C30.6789618,85.8430553 31.3459263,85.6893537 32.0013841,85.5162346 Z M50.0008923,84 L50.0008923,86 L48.0008923,86 L48.0008923,84 L50.0008923,84 Z M61.3380267,86.0008934 L60.0008923,86 L60.000231,85.6801367 C60.437526,85.7974414 60.8834579,85.9043603 61.3380267,86.0008934 Z M56.0002175,84.2024296 L56.0008923,86 L54.0008923,86 L54.0008923,84 L55.59698,84.0011058 C55.7303,84.0695274 55.8647125,84.1366354 56.0002175,84.2024296 Z M44.0008923,84 L44.0008923,86 L42.0008923,86 L42.0008923,84 L44.0008923,84 Z M86.0008923,84 L86.0008923,86 L84.0008923,86 L84.0008923,84 L86.0008923,84 Z M80.0010225,84.484342 L80.0008923,86 L78.0008923,86 L78.0012387,85.2570459 C78.6922619,85.0273962 79.3588564,84.7698283 80.0010225,84.484342 Z M92.0008923,84 L92.0008923,86 L90.0008923,86 L90.0008923,84 L92.0008923,84 Z M104.000892,84 L104.000892,86 L102.000892,86 L102.000892,84 L104.000892,84 Z M146.000892,84 L146.000892,86 L144.000892,86 L144.000892,84 L146.000892,84 Z M194.000856,85.6851816 L194.000892,86 L192.000892,86 L192.000744,85.8888553 C192.68172,85.8382469 193.348424,85.7703557 194.000856,85.6851816 Z M206.000892,84 L206.000892,86 L204.000892,86 L204.000892,84 L206.000892,84 Z M212.000892,84 L212.000892,86 L210.000892,86 L210.000892,84 L212.000892,84 Z M98.0008923,84 L98.0008923,86 L96.0008923,86 L96.0008923,84 L98.0008923,84 Z M110.000892,84 L110.000892,86 L108.000892,86 L108.000892,84 L110.000892,84 Z M134.000892,84 L134.000892,86 L132.000892,86 L132.000892,84 L134.000892,84 Z M140.000892,84 L140.000892,86 L138.000892,86 L138.000892,84 L140.000892,84 Z M170.000892,84 L170.000892,86 L168.000892,86 L168.000892,84 L170.000892,84 Z M200.000762,84.2747992 L200.000892,86 L198.000892,86 L198.000931,84.8988893 C198.686744,84.7141143 199.353355,84.5060842 200.000762,84.2747992 Z M218.000892,84 L218.000892,86 L216.000892,86 L216.000892,84 L218.000892,84 Z M224.000892,84 L224.000892,86 L222.000892,86 L222.000892,84 L224.000892,84 Z M230.000892,84 L230.000892,86 L228.000892,86 L228.000892,84 L230.000892,84 Z M236.000892,84 L236.000892,86 L234.000892,86 L234.000892,84 L236.000892,84 Z M260.000892,84 L260.000892,86 L258.000892,86 L258.000892,84 L260.000892,84 Z M284.001203,84.5413239 L284.000892,86 L282.000892,86 L282.001012,85.2320355 C282.693709,85.0242559 283.360439,84.7940187 284.001203,84.5413239 Z M254.000892,84 L254.000892,86 L252.000892,86 L252.000892,84 L254.000892,84 Z M290.000892,84 L290.000892,86 L288.000892,86 L288.000892,84 L290.000892,84 Z M296.000892,84 L296.000892,86 L294.000892,86 L294.000892,84 L296.000892,84 Z M2.00089226,84 L2.00089226,86 L0.000892264464,86 L0.000892264464,84 L2.00089226,84 Z M13.9997744,85.5019995 L14.0008923,86 L12.0008923,86 L12.0002733,84.7777596 C12.6435152,85.0480766 13.3100156,85.28949 13.9997744,85.5019995 Z M8.00089226,84 L8.00089226,86 L6.00089226,86 L6.00089226,84 L8.00089226,84 Z M164.000892,84 L164.000892,86 L162.335365,86 L162.335,84 L164.000892,84 Z M128,84.468 L128.000892,86 L127.498451,86 L128,84.468 Z M134.000892,78 L134.000892,80 L132.000892,80 L132.000892,78 L134.000892,78 Z M98.0008923,78 L98.0008923,80 L96.0008923,80 L96.0008923,78 L98.0008923,78 Z M140.000892,78 L140.000892,80 L138.000892,80 L138.000892,78 L140.000892,78 Z M109.221,78 L109.874,80 L108.000892,80 L108.000892,78 L109.221,78 Z M170.000892,78 L170.000892,80 L168.000892,80 L168.000892,78 L170.000892,78 Z M218.000892,78 L218.000892,80 L216.000892,80 L216.000892,78 L218.000892,78 Z M224.000892,78 L224.000892,80 L222.000892,80 L222.000892,78 L224.000892,78 Z M230.000892,78 L230.000892,80 L228.000892,80 L228.000892,78 L230.000892,78 Z M146.000892,78 L146.000892,80 L144.000892,80 L144.000892,78 L146.000892,78 Z M236.000892,78 L236.000892,80 L234.000892,80 L234.000892,78 L236.000892,78 Z M44.0008923,78 L44.0008923,80 L42.0008923,80 L42.0008923,78 L44.0008923,78 Z M254.000892,78 L254.000892,80 L252.000892,80 L252.000892,78 L254.000892,78 Z M260.000892,78 L260.000892,80 L258.000892,80 L258.000892,78 L260.000892,78 Z M296.000892,78 L296.000892,80 L294.000892,80 L294.000892,78 L296.000892,78 Z M2.00089226,78 L2.00089226,80 L0.000892264464,80 L0.000892264464,78 L2.00089226,78 Z M104.000892,78 L104.000892,80 L102.000892,80 L102.000892,78 L104.000892,78 Z M92.0008923,78 L92.0008923,80 L90.0008923,80 L90.0008923,78 L92.0008923,78 Z M49.999706,79.6659103 L50.0008923,80 L48.0008923,80 L48.0008923,78 L48.686332,78.000779 C49.0956077,78.5831729 49.5333991,79.1382167 49.999706,79.6659103 Z M212.000892,78 L212.000892,80 L210.000892,80 L210.000892,78 L212.000892,78 Z M38.0008923,78 L38.0008923,80 L36.497,80 L36.497,78 L38.0008923,78 Z M164.000892,78 L164.000892,80 L162.335,80 L162.335,78 L164.000892,78 Z M74.0008923,72 L74.0014504,73.9111109 C73.9608623,73.941362 73.9199664,73.9712042 73.8787629,74.0006373 L72.0008923,74 L72.0008923,72 L74.0008923,72 Z M224.000892,72 L224.000892,74 L222.000892,74 L222.000892,72 L224.000892,72 Z M44.0008923,72 L44.0008923,74 L42.0008923,74 L42.0008923,72 L44.0008923,72 Z M230.000892,72 L230.000892,74 L228.000892,74 L228.000892,72 L230.000892,72 Z M68.0008923,72 L68.0008923,74 L66.0008923,74 L66.0008923,72 L68.0008923,72 Z M236.000892,72 L236.000892,74 L234.000892,74 L234.000892,72 L236.000892,72 Z M266.000892,72 L266.000892,74 L264.000892,74 L264.000892,72 L266.000892,72 Z M26.0008923,72 L26.0008923,74 L24.0008923,74 L24.0008923,72 L26.0008923,72 Z M272.000892,72 L272.000892,74 L270.000892,74 L270.000892,72 L272.000892,72 Z M134.000892,72 L134.000892,74 L132.000892,74 L132,72.259 L132.085,72 L134.000892,72 Z M218.000892,72 L218.000892,74 L216.000892,74 L216.000892,72 L218.000892,72 Z M146.000892,72 L146.000892,74 L144.000892,74 L144.000892,72 L146.000892,72 Z M254.000892,72 L254.000892,74 L252.000892,74 L252.000892,72 L254.000892,72 Z M20.0008923,72 L20.0008923,74 L18.0008923,74 L18.0008923,72 L20.0008923,72 Z M1.60209114,74.0006543 L0.000892264464,74 L0.000892264464,72 L0.899433751,72.0006919 C1.1098442,72.6904128 1.34406333,73.3570669 1.60209114,74.0006543 Z M260.000892,72 L260.000892,74 L258.000892,74 L258.000892,72 L260.000892,72 Z M140.000892,72 L140.000892,74 L138.000892,74 L138.000892,72 L140.000892,72 Z M278.000892,72 L278.000892,74 L276.000892,74 L276.000892,72 L278.000892,72 Z M98.0008923,72 L98.0008923,74 L96.0008923,74 L96.0008923,72 L98.0008923,72 Z M170.000892,72 L170.000892,74 L168.000892,74 L168.000892,72 L170.000892,72 Z M194.000892,72 L194.000892,74 L192.000892,74 L192.000892,72 L194.000892,72 Z M104.000892,72 L104.000892,74 L102.000892,74 L102.000892,72 L104.000892,72 Z M32.0008923,72 L32.0008923,74 L30.0008923,74 L30.0008923,72 L32.0008923,72 Z M188.000892,72 L188.000892,74 L186.289,74 L186.289,72 L188.000892,72 Z M296.000892,72 L296.000892,74 L294.557252,74.0010171 C294.812954,73.3611846 295.047713,72.6945238 295.261531,72.0010346 L296.000892,72 Z M38.0008923,72 L38.0008923,74 L36.497,74 L36.4979626,72.6918945 L36,72.893 L36.0008923,72 L38.0008923,72 Z M164.000892,72 L164.000892,74 L162.335,74 L162.335,72 L164.000892,72 Z M92.0008923,72 L92.0008923,74 L90.0253618,74.0009454 C90.2884725,73.357901 90.5275958,72.6913994 90.7427319,72.0014406 L92.0008923,72 Z M62.0008923,72 L62.0000226,73.4215695 C61.5486055,73.0075326 61.1384532,72.5341864 60.7695656,72.0015309 L62.0008923,72 Z M74.0008923,66 L74.0008923,68 L72.0008923,68 L72.0008923,66 L74.0008923,66 Z M254.000892,66 L254.000892,68 L252.000892,68 L252.000892,66 L254.000892,66 Z M266.000132,67.316574 L266.000892,68 L264.000892,68 L264.000892,66 L264.548329,66.0014665 C265.001884,66.4863196 265.485818,66.9246887 266.000132,67.316574 Z M26.0008923,66 L26.0008923,68 L24.0008923,68 L24.0008923,66 L26.0008923,66 Z M140.000892,66 L140.000892,68 L138.000892,68 L138.000892,66 L140.000892,66 Z M44.0008923,66 L44.0008923,68 L42.0008923,68 L42.0008923,66 L44.0008923,66 Z M62.0008923,66 L62.0008923,68 L60.0008923,68 L60.0008923,66 L62.0008923,66 Z M104.000892,66 L104.000892,68 L102.000892,68 L102.000892,66 L104.000892,66 Z M170.000892,66 L170.000892,68 L168.000892,68 L168.000892,66 L170.000892,66 Z M284.000892,66 L284.000892,68 L282.000892,68 L282,67.457 L282.055542,67.4099071 C282.458861,67.0406403 282.864677,66.5714426 283.272992,66.0023142 L284.000892,66 Z M194.000892,66 L194.000892,68 L192.000892,68 L192.000892,66 L194.000892,66 Z M20.0008923,66 L20.0008923,68 L18.0008923,68 L18.0008923,66 L20.0008923,66 Z M38.0008923,66 L38.0008923,68 L36.0008923,68 L36.0008923,66 L38.0008923,66 Z M200.000892,66 L200.000892,68 L198.000892,68 L198.000892,66 L200.000892,66 Z M32.0008923,66 L32.0008923,68 L30.0008923,68 L30.0008923,66 L32.0008923,66 Z M218.000892,66 L218.000892,68 L216.000892,68 L216.000892,66 L218.000892,66 Z M224.000892,66 L224.000892,68 L222.000892,68 L222.000892,66 L224.000892,66 Z M146.000892,66 L146.000892,68 L144.000892,68 L144.000892,66 L146.000892,66 Z M98.0008923,66 L98.0008923,68 L96.0008923,68 L96.0008923,66 L98.0008923,66 Z M230.000892,66 L230.000892,68 L228.000892,68 L228.000892,66 L230.000892,66 Z M120.659095,67.4023438 C120.61858,67.6049183 120.579226,67.8045929 120.541031,68.0013675 L120.000892,68 L120.000892,66 L120.945315,66.0002284 C120.852323,66.4458638 120.756917,66.9132356 120.659095,67.4023438 Z M68.0008923,66 L68.0008923,68 L66.0008923,68 L66.0008923,66 L68.0008923,66 Z M236.000892,66 L236.000892,68 L234.000892,68 L234.000892,66 L236.000892,66 Z M260.000892,66 L260.000892,68 L258.000892,68 L258.000892,66 L260.000892,66 Z M134,66.154 L134.000892,68 L133.395,68 L134,66.154 Z M188.000892,66 L188.000892,68 L186.289,68 L186.289,66 L188.000892,66 Z M92.0008923,66 L92.0008923,68 L91.6789582,68.0014688 C91.7861622,67.3512288 91.8764948,66.6844904 91.9499562,66.0012535 L92.0008923,66 Z M14.0008923,66 L14.0008923,68 L13.9133195,68.001059 C13.7455067,67.3724148 13.6066342,66.7057246 13.4967018,66.0009885 L14.0008923,66 Z M164.000892,66 L164.000892,68 L162.335,68 L162.335,66 L164.000892,66 Z M230.000892,60 L230.000892,62 L228.000892,62 L228.000892,60 L230.000892,60 Z M200.000892,60 L200.000892,62 L198.000892,62 L198.000892,60 L200.000892,60 Z M62.0008923,60 L62.0008923,62 L60.0008923,62 L60.0008923,60 L62.0008923,60 Z M218.000892,60 L218.000892,62 L216.000892,62 L216.000892,60 L218.000892,60 Z M146.000892,60 L146.000892,62 L144.000892,62 L144.000892,60 L146.000892,60 Z M194.000892,60 L194.000892,62 L192.000892,62 L192.000892,60 L194.000892,60 Z M260.000892,60 L260.000892,62 L258.000892,62 L258.000892,60 L260.000892,60 Z M170.000892,60 L170.000892,62 L168.000892,62 L168.000892,60 L170.000892,60 Z M254.000892,60 L254.000892,62 L252.000892,62 L252.000892,60 L254.000892,60 Z M38.0008923,60 L38.0008923,62 L36.0008923,62 L36.0008923,60 L38.0008923,60 Z M224.000892,60 L224.000892,62 L222.000892,62 L222.000892,60 L224.000892,60 Z M26.0008923,60 L26.0008923,62 L24.0008923,62 L24.0008923,60 L26.0008923,60 Z M236.000892,60 L236.000892,62 L234.000892,62 L234.000892,60 L236.000892,60 Z M122.000892,60 L122,61.494 L121.905677,61.8432617 L121.864,62 L120.000892,62 L120.000892,60 L122.000892,60 Z M103.349,60 L104,61.997 L104.000892,62 L102.000892,62 L102.000892,60 L103.349,60 Z M44.0008923,60 L44.0008923,62 L42.0008923,62 L42.0008923,60 L44.0008923,60 Z M32.0008923,60 L32.0008923,62 L30.0008923,62 L30.0008923,60 L32.0008923,60 Z M74.0008923,60 L74.0008923,62 L72.0008923,62 L72.0008923,60 L74.0008923,60 Z M68.0008923,60 L68.0008923,62 L66.0008923,62 L66.0008923,60 L68.0008923,60 Z M140.000892,60 L140.000892,62 L138.000892,62 L138.000892,60 L140.000892,60 Z M98.0008923,60 L98.0008923,62 L96.0008923,62 L96.0008923,60 L98.0008923,60 Z M78.1742321,61.3041992 C78.1742321,61.5396203 78.1723499,61.7720559 78.1685856,62.001506 L78.0008923,62 L78.0008923,60 L78.1539348,59.9998091 C78.1674663,60.4240659 78.1742321,60.8588626 78.1742321,61.3041992 Z M20.0008923,60 L20.0008923,62 L18.0008923,62 L18.0008923,60 L20.0008923,60 Z M164.000892,60 L164.000892,62 L162.335,62 L162.335,60 L164.000892,60 Z M14.0008923,60 L14.0008923,62 L13.1859876,62.0009115 C13.1843355,61.8596037 13.1835095,61.7172101 13.1835095,61.5737305 C13.1835095,61.0353818 13.1958776,60.5107319 13.2206139,59.999781 L14.0008923,60 Z M188.000892,60 L188.000892,62 L186.289,62 L186.289,60 L188.000892,60 Z M44.0008923,54 L44.0008923,56 L42.0008923,56 L42.0008923,54 L44.0008923,54 Z M254.000892,54 L254.000892,56 L252.000892,56 L252.000892,54 L254.000892,54 Z M194.000892,54 L194.000892,56 L192.000892,56 L192.000892,54 L194.000892,54 Z M260.000892,54 L260.000892,56 L258.000892,56 L258.000892,54 L260.000892,54 Z M20.0008923,54 L20.0008923,56 L18.0008923,56 L18.0008923,54 L20.0008923,54 Z M218.000892,54 L218.000892,56 L216.000892,56 L216.000892,54 L218.000892,54 Z M146.000892,54 L146.000892,56 L144.000892,56 L144.000892,54 L146.000892,54 Z M278.000892,54 L278.000892,56 L276.000892,56 L276.000892,54 L278.000892,54 Z M170.000892,54 L170.000892,56 L168.000892,56 L168.000892,54 L170.000892,54 Z M32.0008923,54 L32.0008923,56 L30.0008923,56 L30.0008923,54 L32.0008923,54 Z M140.000892,54 L140.000892,56 L138.000892,56 L138.000892,54 L140.000892,54 Z M283.624427,54.1953125 C283.624427,54.837065 283.523402,55.4388283 283.321351,56.0006024 L282.000892,56 L282.000892,54 L283.622818,53.99974 C283.623891,54.0646295 283.624427,54.1298203 283.624427,54.1953125 Z M223.955,54 L224,54.055 L224.000892,56 L222.000892,56 L222.000892,54 L223.955,54 Z M38.0008923,54 L38.0008923,56 L36.0008923,56 L36.0008923,54 L38.0008923,54 Z M236.000892,54 L236.000892,56 L234.000892,56 L234,54.059 L234.030677,54.0322627 C234.042209,54.0216985 234.053721,54.0111384 234.065214,54.0005826 L236.000892,54 Z M68.0008923,54 L68.0008923,56 L66.0008923,56 L66.0008923,54 L68.0008923,54 Z M62.0008923,54 L62.0008923,56 L60.0008923,56 L60.0008923,54 L62.0008923,54 Z M122.000892,54 L122.000892,56 L120.000892,56 L120.000892,54 L122.000892,54 Z M74.0008923,54 L74.0008923,56 L72.0008923,56 L72.0008923,54 L74.0008923,54 Z M98.0008923,54 L98.0008923,56 L96.0008923,56 L96.0008923,54 L98.0008923,54 Z M26.0008923,54 L26.0008923,56 L24.0008923,56 L24.0008923,54 L26.0008923,54 Z M200.000892,54 L200.000892,56 L198.000892,56 L198.000892,54 L200.000892,54 Z M164.000892,54 L164.000892,56 L162.335,56 L162.335,54 L164.000892,54 Z M188.000892,54 L188.000892,56 L186.289,56 L186.289,54 L188.000892,54 Z M92.0008923,54 L92.0008923,56 L91.8828809,56.0001862 C91.7989224,55.3166045 91.6977419,54.6501492 91.5793393,54.0008203 L92.0008923,54 Z M14.0007793,54.899186 L14.0008923,56 L13.7258336,55.9999097 C13.8081186,55.6226307 13.8997671,55.2557228 14.0007793,54.899186 Z M116.000892,54 L116.000892,56 L115.891,56 L115.354,54 L116.000892,54 Z M-0.00104179807,55.4889451 L0.000892264464,54 L0.295700927,54.0002945 C0.185209751,54.4890642 0.0862955098,54.9852811 -0.00104179807,55.4889451 Z M74.0012511,48.6163411 L74.0008923,50 L72.0008923,50 L72.0008923,48 L73.0663315,47.9997913 C73.3935925,48.1827919 73.7052324,48.3883085 74.0012511,48.6163411 Z M122.000892,48 L122.000892,50 L120.000892,50 L120.000892,48 L122.000892,48 Z M260.000892,48 L260.000892,50 L258.000892,50 L258.000892,48 L260.000892,48 Z M44.0008923,48 L44.0008923,50 L42.0008923,50 L42.0008923,48 L44.0008923,48 Z M26.0008923,48 L26.0008923,50 L24.0008923,50 L24.0008923,48 L26.0008923,48 Z M20.0008923,48 L20.0008923,50 L18.0008923,50 L17.999804,48.5693286 C18.2847644,48.3592747 18.5807058,48.1696773 18.8876282,48.0005366 L20.0008923,48 Z M98.0008923,48 L98.0008923,50 L96.0008923,50 L96.0008923,48 L98.0008923,48 Z M282.12516,49.0405273 C282.338579,49.3474679 282.529214,49.6672091 282.697063,49.999751 L282.000892,50 L282.000855,48.8672941 C282.042734,48.9238297 282.084169,48.9815741 282.12516,49.0405273 Z M254.000892,48 L254.000892,50 L252.000892,50 L252.000892,48 L254.000892,48 Z M146.000892,48 L146.000892,50 L144.000892,50 L144.000892,48 L146.000892,48 Z M32.0004931,48.8650283 L32.0008923,50 L30.0008923,50 L30.0003528,48.1208944 C30.6670662,48.350841 31.3337796,48.5988856 32.0004931,48.8650283 Z M278.000892,48 L278.000892,50 L276.000892,50 L276.000892,48 L278.000892,48 Z M218.000892,48 L218.000892,50 L216.000892,50 L216.000892,48 L218.000892,48 Z M170.000892,48 L170.000892,50 L168.000892,50 L168.000892,48 L170.000892,48 Z M38.0008923,48 L38.0008923,50 L36.0008923,50 L36.0008923,48 L38.0008923,48 Z M2.00089226,48 L1.99987646,48.8758129 C1.83270271,49.2451754 1.67392962,49.6199419 1.52355719,50.0001122 L0.000892264464,50 L0.000892264464,48 L2.00089226,48 Z M194.000892,48 L194.000892,50 L192.000892,50 L192.000892,48 L194.000892,48 Z M68.0008923,48 L68.0008923,50 L66.0008923,50 L66.0008923,48 L68.0008923,48 Z M62.0000905,49.0956426 L62.0008923,50 L61.162197,49.9999364 C61.4236111,49.6727333 61.7029089,49.371302 62.0000905,49.0956426 Z M140.000892,48 L140.000892,50 L139.293,50 L139.948,48 L140.000892,48 Z M164.000892,48 L164.000892,50 L162.335,50 L162.335,48 L164.000892,48 Z M188.000892,48 L188.000892,50 L186.289,50 L186.289,48 L188.000892,48 Z M92.0008923,48 L92.0008923,50 L90.560004,50.0000359 C90.3873934,49.4872743 90.2010724,48.9881468 90.001041,48.5026535 L90.0008923,48 L92.0008923,48 Z M296.000892,48 L296.000892,50 L295.801797,50.000146 C295.61614,49.3094075 295.406918,48.6427143 295.174132,48.0000667 L296.000892,48 Z M116.000892,48 L116.000892,50 L114.28,50 L114,48.957 L114.000892,48 L116.000892,48 Z M224.000892,48 L224,48.181 L222,49.81 L222.000892,48 L224.000892,48 Z M44.0008923,42 L44.0008923,44 L42.0008923,44 L42.0008923,42 L44.0008923,42 Z M97.476,42 L98,43.606 L98.0008923,44 L96.0008923,44 L96.0008923,42 L97.476,42 Z M2.00089226,42 L2.00089226,44 L0.000892264464,44 L0.000892264464,42 L2.00089226,42 Z M224.000892,42 L224.000892,44 L222.000892,44 L222.000892,42 L224.000892,42 Z M50.0008923,42 L49.9995301,42.9228117 C49.6915378,43.2704096 49.3959859,43.6297662 49.1128743,44.0008814 L48.0008923,44 L48.0008923,42 L50.0008923,42 Z M92.0008923,42 L92.0008923,44 L90.0008923,44 L90.0008923,42 L92.0008923,42 Z M116.000892,42 L116.000892,44 L114.000892,44 L114.000892,42 L116.000892,42 Z M170.000892,42 L170.000892,44 L168.000892,44 L168.000892,42 L170.000892,42 Z M230.000892,42 L230,43.292 L229.131,44 L228.000892,44 L228.000892,42 L230.000892,42 Z M146.000892,42 L146.000892,44 L144.000892,44 L144.000892,42 L146.000892,42 Z M212.000892,42 L212.000892,44 L210.000892,44 L210.000892,42 L212.000892,42 Z M218.000892,42 L218.000892,44 L216.000892,44 L216.000892,42 L218.000892,42 Z M254.000892,42 L254.000892,44 L252.000892,44 L252.000892,42 L254.000892,42 Z M296.000892,42 L296.000892,44 L294.000892,44 L294.000892,42 L296.000892,42 Z M127.312,42 L126.767,44 L126.000892,44 L126.000892,42 L127.312,42 Z M260.000892,42 L260.000892,44 L258.000892,44 L258.000892,42 L260.000892,42 Z M122.000892,42 L122.000892,44 L120.000892,44 L120.000892,42 L122.000892,42 Z M164.000892,42 L164.000892,44 L162.335,44 L162.335,42 L164.000892,42 Z M38.0008923,42 L38.0008923,44 L36.905,44 L37.683,42 L38.0008923,42 Z M5.99967809,42.8293804 L6.00089226,42 L6.83009853,41.9996597 C6.54542765,42.2678974 6.26862084,42.5444709 5.99967809,42.8293804 Z M230.000892,36 L230.000892,38 L228.000892,38 L228.000892,36 L230.000892,36 Z M38.0008923,36 L38.0008923,38 L36.0008923,38 L36.0008923,36 L38.0008923,36 Z M14.0008923,36 L13.9996417,37.5956389 C13.6563725,37.7225417 13.3178325,37.8571869 12.9840217,37.9995746 L12.0008923,38 L12.0008923,36 L14.0008923,36 Z M50.0008923,36 L50.0008923,38 L48.0008923,38 L48.0008923,36 L50.0008923,36 Z M224.000892,36 L224.000892,38 L222.000892,38 L222.000892,36 L224.000892,36 Z M2.00089226,36 L2.00089226,38 L0.000892264464,38 L0.000892264464,36 L2.00089226,36 Z M236.000892,36 L236.000892,38 L234.000892,38 L234.000892,36 L236.000892,36 Z M92.0008923,36 L92.0008923,38 L90.0008923,38 L90.0008923,36 L92.0008923,36 Z M116.000892,36 L116.000892,38 L114.000892,38 L114.000892,36 L116.000892,36 Z M266.000892,36 L266.000892,38 L264.000892,38 L264.000892,36 L266.000892,36 Z M296.000892,36 L296.000892,38 L294.000892,38 L294.000892,36 L296.000892,36 Z M56.0008923,36 L56.0008923,38 L54.0008923,38 L54.0008923,36 L56.0008923,36 Z M254.000892,36 L254.000892,38 L252.000892,38 L252.000892,36 L254.000892,36 Z M8.00089226,36 L8.00089226,38 L6.00089226,38 L6.00089226,36 L8.00089226,36 Z M290.000892,36 L290.000892,38 L288.000892,38 L288.000892,36 L290.000892,36 Z M86.0008923,36 L86.0008923,38 L84.0008923,38 L84.0008923,36 L86.0008923,36 Z M212.000892,36 L212.000892,38 L210.000892,38 L210.000892,36 L212.000892,36 Z M218.000892,36 L218.000892,38 L216.000892,38 L216.000892,36 L218.000892,36 Z M44.0008923,36 L44.0008923,38 L42.0008923,38 L42.0008923,36 L44.0008923,36 Z M206.000892,36 L206.000892,38 L204.000892,38 L204.000892,36 L206.000892,36 Z M170.000892,36 L170.000892,38 L168.000892,38 L168.000892,36 L170.000892,36 Z M122.000892,36 L122.000892,38 L120.000892,38 L120.000892,36 L122.000892,36 Z M128.000892,36 L128.000892,38 L126.000892,38 L126.000892,36 L128.000892,36 Z M146.000892,36 L146.000892,38 L144.000892,38 L144.000892,36 L146.000892,36 Z M260.000892,36 L260.000892,38 L258.000892,38 L258.000892,36 L260.000892,36 Z M80.0008923,36 L80.0008923,38 L79.7189728,38.0000436 C79.1643396,37.7657273 78.5917739,37.5516779 78.0012755,37.3578956 L78.0008923,36 L80.0008923,36 Z M164.000892,36 L164.000892,38 L162.335,38 L162.335365,36.7431641 L162,36.743 L162.000892,36 L164.000892,36 Z M200.000892,36 L200.000892,38 L199.704346,37.9992728 C199.150683,37.8366796 198.582945,37.6898712 198.001133,37.5588476 L198.000892,36 L200.000892,36 Z M272.000892,36 L272.000193,36.9874849 C271.305902,37.1800061 270.639152,37.409607 269.999944,37.6762875 L270.000892,36 L272.000892,36 Z M32.0008923,36 L32.0004893,37.0952484 C31.3380254,36.9279672 30.6715233,36.7804927 30.0009829,36.6528249 L30.0008923,36 L32.0008923,36 Z M284.000892,36 L284.001016,37.0334104 C283.35665,36.8468464 282.689979,36.6930928 282.001006,36.5721498 L282.000892,36 L284.000892,36 Z M62.0008923,36 L61.9995868,36.5084537 C61.3137746,36.6353566 60.6471855,36.7846188 59.9998195,36.9562402 L60.0008923,36 L62.0008923,36 Z M194.000892,36 L194.001187,36.9275591 C193.348914,36.8643735 192.682161,36.8174264 192.000929,36.786718 L192.000892,36 L194.000892,36 Z M242.000892,36 L242,36.743 L240,36.743 L240.000892,36 L242.000892,36 Z M248.000892,36 L248,36.743 L246,36.743 L246.000892,36 L248.000892,36 Z M176.000892,36 L176,36.743 L174,36.743 L174.000892,36 L176.000892,36 Z M182.000892,36 L182,36.743 L180,36.743 L180.000892,36 L182.000892,36 Z M188.000892,36 L188,36.743 L186,36.743 L186.000892,36 L188.000892,36 Z M152.000892,36 L152,36.743 L150,36.743 L150.000892,36 L152.000892,36 Z M158.000892,36 L158,36.743 L156,36.743 L156.000892,36 L158.000892,36 Z M134.000892,36 L134,36.743 L132,36.743 L132.000892,36 L134.000892,36 Z M140.000892,36 L140,36.743 L138,36.743 L138.000892,36 L140.000892,36 Z M98.0008923,36 L98,36.743 L96,36.743 L96.0008923,36 L98.0008923,36 Z M104.000892,36 L104,36.743 L102,36.743 L102.000892,36 L104.000892,36 Z M110.000892,36 L110,36.743 L108,36.743 L108.000892,36 L110.000892,36 Z M20.0008923,36 L19.9996116,36.2143613 C19.3191588,36.2884397 18.6527724,36.3855474 18.0004525,36.5056843 L18.0008923,36 L20.0008923,36 Z M74.0008923,36 L74.0015583,36.3983222 C73.3517994,36.2932393 72.6850014,36.2074137 72.0011642,36.1408454 L72.0008923,36 L74.0008923,36 Z M278.000892,36 L278.000493,36.2378171 C277.988424,36.237801 277.97635,36.237793 277.964271,36.237793 C277.291843,36.237793 276.637177,36.2617085 276.000275,36.3095395 L276.000892,36 L278.000892,36 Z M26.0008923,36 L26.0002307,36.1295749 C25.3374791,36.0814863 24.6709628,36.0518623 24.0006819,36.0407028 L24.0008923,36 L26.0008923,36 Z M188.000892,30 L188.000892,32 L186.000892,32 L186.000892,30 L188.000892,30 Z M266.000892,30 L266.000892,32 L264.000892,32 L264.000892,30 L266.000892,30 Z M242.000892,30 L242.000892,32 L240.000892,32 L240.000892,30 L242.000892,30 Z M50.0008923,30 L50.0008923,32 L48.0008923,32 L48.0008923,30 L50.0008923,30 Z M38.0008923,30 L38.0008923,32 L36.0008923,32 L36.0008923,30 L38.0008923,30 Z M194.000892,30 L194.000892,32 L192.000892,32 L192.000892,30 L194.000892,30 Z M278.000892,30 L278.000892,32 L276.000892,32 L276.000892,30 L278.000892,30 Z M122.000892,30 L122.000892,32 L120.000892,32 L120.000892,30 L122.000892,30 Z M104.000892,30 L104.000892,32 L102.000892,32 L102.000892,30 L104.000892,30 Z M200.000892,30 L200.000892,32 L198.000892,32 L198.000892,30 L200.000892,30 Z M32.0008923,30 L32.0008923,32 L30.0008923,32 L30.0008923,30 L32.0008923,30 Z M272.000892,30 L272.000892,32 L270.000892,32 L270.000892,30 L272.000892,30 Z M290.000892,30 L290.000892,32 L288.000892,32 L288.000892,30 L290.000892,30 Z M86.0008923,30 L86.0008923,32 L84.0008923,32 L84.0008923,30 L86.0008923,30 Z M134.000892,30 L134.000892,32 L132.000892,32 L132.000892,30 L134.000892,30 Z M152.000892,30 L152.000892,32 L150.000892,32 L150.000892,30 L152.000892,30 Z M170.000892,30 L170.000892,32 L168.000892,32 L168.000892,30 L170.000892,30 Z M20.0008923,30 L20.0008923,32 L18.0008923,32 L18.0008923,30 L20.0008923,30 Z M98.0008923,30 L98.0008923,32 L96.0008923,32 L96.0008923,30 L98.0008923,30 Z M110.000892,30 L110.000892,32 L108.000892,32 L108.000892,30 L110.000892,30 Z M248.000892,30 L248.000892,32 L246.000892,32 L246.000892,30 L248.000892,30 Z M236.000892,30 L236.000892,32 L234.000892,32 L234.000892,30 L236.000892,30 Z M62.0008923,30 L62.0008923,32 L60.0008923,32 L60.0008923,30 L62.0008923,30 Z M2.00089226,30 L2.00089226,32 L0.000892264464,32 L0.000892264464,30 L2.00089226,30 Z M296.000892,30 L296.000892,32 L294.000892,32 L294.000892,30 L296.000892,30 Z M44.0008923,30 L44.0008923,32 L42.0008923,32 L42.0008923,30 L44.0008923,30 Z M26.0008923,30 L26.0008923,32 L24.0008923,32 L24.0008923,30 L26.0008923,30 Z M224.000892,30 L224.000892,32 L222.000892,32 L222.000892,30 L224.000892,30 Z M284.000892,30 L284.000892,32 L282.000892,32 L282.000892,30 L284.000892,30 Z M260.000892,30 L260.000892,32 L258.000892,32 L258.000892,30 L260.000892,30 Z M8.00089226,30 L8.00089226,32 L6.00089226,32 L6.00089226,30 L8.00089226,30 Z M254.000892,30 L254.000892,32 L252.000892,32 L252.000892,30 L254.000892,30 Z M164.000892,30 L164.000892,32 L162.000892,32 L162.000892,30 L164.000892,30 Z M80.0008923,30 L80.0008923,32 L78.0008923,32 L78.0008923,30 L80.0008923,30 Z M140.000892,30 L140.000892,32 L138.000892,32 L138.000892,30 L140.000892,30 Z M146.000892,30 L146.000892,32 L144.000892,32 L144.000892,30 L146.000892,30 Z M14.0008923,30 L14.0008923,32 L12.0008923,32 L12.0008923,30 L14.0008923,30 Z M182.000892,30 L182.000892,32 L180.000892,32 L180.000892,30 L182.000892,30 Z M56.0008923,30 L56.0008923,32 L54.0008923,32 L54.0008923,30 L56.0008923,30 Z M206.000892,30 L206.000892,32 L204.000892,32 L204.000892,30 L206.000892,30 Z M230.000892,30 L230.000892,32 L228.000892,32 L228.000892,30 L230.000892,30 Z M158.000892,30 L158.000892,32 L156.000892,32 L156.000892,30 L158.000892,30 Z M176.000892,30 L176.000892,32 L174.000892,32 L174.000892,30 L176.000892,30 Z M128.000892,30 L128.000892,32 L126.000892,32 L126.000892,30 L128.000892,30 Z M116.000892,30 L116.000892,32 L114.000892,32 L114.000892,30 L116.000892,30 Z M68.0008923,30 L68.0008923,32 L66.0008923,32 L66.0008923,30 L68.0008923,30 Z M212.000892,30 L212.000892,32 L210.000892,32 L210.000892,30 L212.000892,30 Z M218.000892,30 L218.000892,32 L216.000892,32 L216.000892,30 L218.000892,30 Z M92.0008923,30 L92.0008923,32 L90.0008923,32 L90.0008923,30 L92.0008923,30 Z M74.0008923,30 L74.0008923,32 L72.0008923,32 L72.0008923,30 L74.0008923,30 Z M248.000892,24 L248.000892,26 L246.000892,26 L246.000892,24 L248.000892,24 Z M164.000892,24 L164.000892,26 L162.000892,26 L162.000892,24 L164.000892,24 Z M242.000892,24 L242.000892,26 L240.000892,26 L240.000892,24 L242.000892,24 Z M74.0008923,24 L74.0008923,26 L72.0008923,26 L72.0008923,24 L74.0008923,24 Z M38.0008923,24 L38.0008923,26 L36.0008923,26 L36.0008923,24 L38.0008923,24 Z M176.000892,24 L176.000892,26 L174.000892,26 L174.000892,24 L176.000892,24 Z M32.0008923,24 L32.0008923,26 L30.0008923,26 L30.0008923,24 L32.0008923,24 Z M152.000892,24 L152.000892,26 L150.000892,26 L150.000892,24 L152.000892,24 Z M134.000892,24 L134.000892,26 L132.000892,26 L132.000892,24 L134.000892,24 Z M260.000892,24 L260.000892,26 L258.000892,26 L258.000892,24 L260.000892,24 Z M20.0008923,24 L20.0008923,26 L18.0008923,26 L18.0008923,24 L20.0008923,24 Z M278.000892,24 L278.000892,26 L276.000892,26 L276.000892,24 L278.000892,24 Z M290.000892,24 L290.000892,26 L288.000892,26 L288.000892,24 L290.000892,24 Z M68.0008923,24 L68.0008923,26 L66.0008923,26 L66.0008923,24 L68.0008923,24 Z M182.000892,24 L182.000892,26 L180.000892,26 L180.000892,24 L182.000892,24 Z M44.0008923,24 L44.0008923,26 L42.0008923,26 L42.0008923,24 L44.0008923,24 Z M116.000892,24 L116.000892,26 L114.000892,26 L114.000892,24 L116.000892,24 Z M200.000892,24 L200.000892,26 L198.000892,26 L198.000892,24 L200.000892,24 Z M140.000892,24 L140.000892,26 L138.000892,26 L138.000892,24 L140.000892,24 Z M272.000892,24 L272.000892,26 L270.000892,26 L270.000892,24 L272.000892,24 Z M212.000892,24 L212.000892,26 L210.000892,26 L210.000892,24 L212.000892,24 Z M80.0008923,24 L80.0008923,26 L78.0008923,26 L78.0008923,24 L80.0008923,24 Z M8.00089226,24 L8.00089226,26 L6.00089226,26 L6.00089226,24 L8.00089226,24 Z M50.0008923,24 L50.0008923,26 L48.0008923,26 L48.0008923,24 L50.0008923,24 Z M296.000892,24 L296.000892,26 L294.000892,26 L294.000892,24 L296.000892,24 Z M266.000892,24 L266.000892,26 L264.000892,26 L264.000892,24 L266.000892,24 Z M98.0008923,24 L98.0008923,26 L96.0008923,26 L96.0008923,24 L98.0008923,24 Z M2.00089226,24 L2.00089226,26 L0.000892264464,26 L0.000892264464,24 L2.00089226,24 Z M62.0008923,24 L62.0008923,26 L60.0008923,26 L60.0008923,24 L62.0008923,24 Z M284.000892,24 L284.000892,26 L282.000892,26 L282.000892,24 L284.000892,24 Z M146.000892,24 L146.000892,26 L144.000892,26 L144.000892,24 L146.000892,24 Z M170.000892,24 L170.000892,26 L168.000892,26 L168.000892,24 L170.000892,24 Z M206.000892,24 L206.000892,26 L204.000892,26 L204.000892,24 L206.000892,24 Z M188.000892,24 L188.000892,26 L186.000892,26 L186.000892,24 L188.000892,24 Z M224.000892,24 L224.000892,26 L222.000892,26 L222.000892,24 L224.000892,24 Z M56.0008923,24 L56.0008923,26 L54.0008923,26 L54.0008923,24 L56.0008923,24 Z M194.000892,24 L194.000892,26 L192.000892,26 L192.000892,24 L194.000892,24 Z M110.000892,24 L110.000892,26 L108.000892,26 L108.000892,24 L110.000892,24 Z M236.000892,24 L236.000892,26 L234.000892,26 L234.000892,24 L236.000892,24 Z M92.0008923,24 L92.0008923,26 L90.0008923,26 L90.0008923,24 L92.0008923,24 Z M26.0008923,24 L26.0008923,26 L24.0008923,26 L24.0008923,24 L26.0008923,24 Z M218.000892,24 L218.000892,26 L216.000892,26 L216.000892,24 L218.000892,24 Z M122.000892,24 L122.000892,26 L120.000892,26 L120.000892,24 L122.000892,24 Z M158.000892,24 L158.000892,26 L156.000892,26 L156.000892,24 L158.000892,24 Z M254.000892,24 L254.000892,26 L252.000892,26 L252.000892,24 L254.000892,24 Z M230.000892,24 L230.000892,26 L228.000892,26 L228.000892,24 L230.000892,24 Z M104.000892,24 L104.000892,26 L102.000892,26 L102.000892,24 L104.000892,24 Z M14.0008923,24 L14.0008923,26 L12.0008923,26 L12.0008923,24 L14.0008923,24 Z M128.000892,24 L128.000892,26 L126.000892,26 L126.000892,24 L128.000892,24 Z M86.0008923,24 L86.0008923,26 L84.0008923,26 L84.0008923,24 L86.0008923,24 Z M122.000892,18 L122.000892,20 L120.000892,20 L120.000892,18 L122.000892,18 Z M260.000892,18 L260.000892,20 L258.000892,20 L258.000892,18 L260.000892,18 Z M242.000892,18 L242.000892,20 L240.000892,20 L240.000892,18 L242.000892,18 Z M110.000892,18 L110.000892,20 L108.000892,20 L108.000892,18 L110.000892,18 Z M62.0008923,18 L62.0008923,20 L60.0008923,20 L60.0008923,18 L62.0008923,18 Z M116.000892,18 L116.000892,20 L114.000892,20 L114.000892,18 L116.000892,18 Z M218.000892,18 L218.000892,20 L216.000892,20 L216.000892,18 L218.000892,18 Z M230.000892,18 L230.000892,20 L228.000892,20 L228.000892,18 L230.000892,18 Z M32.0008923,18 L32.0008923,20 L30.0008923,20 L30.0008923,18 L32.0008923,18 Z M278.000892,18 L278.000892,20 L276.000892,20 L276.000892,18 L278.000892,18 Z M38.0008923,18 L38.0008923,20 L36.0008923,20 L36.0008923,18 L38.0008923,18 Z M272.000892,18 L272.000892,20 L270.000892,20 L270.000892,18 L272.000892,18 Z M284.000892,18 L284.000892,20 L282.000892,20 L282.000892,18 L284.000892,18 Z M206.000892,18 L206.000892,20 L204.000892,20 L204.000892,18 L206.000892,18 Z M212.000892,18 L212.000892,20 L210.000892,20 L210.000892,18 L212.000892,18 Z M224.000892,18 L224.000892,20 L222.000892,20 L222.000892,18 L224.000892,18 Z M8.00089226,18 L8.00089226,20 L6.00089226,20 L6.00089226,18 L8.00089226,18 Z M134.000892,18 L134.000892,20 L132.000892,20 L132.000892,18 L134.000892,18 Z M254.000892,18 L254.000892,20 L252.000892,20 L252.000892,18 L254.000892,18 Z M140.000892,18 L140.000892,20 L138.000892,20 L138.000892,18 L140.000892,18 Z M98.0008923,18 L98.0008923,20 L96.0008923,20 L96.0008923,18 L98.0008923,18 Z M182.000892,18 L182.000892,20 L180.000892,20 L180.000892,18 L182.000892,18 Z M164.000892,18 L164.000892,20 L162.000892,20 L162.000892,18 L164.000892,18 Z M146.000892,18 L146.000892,20 L144.000892,20 L144.000892,18 L146.000892,18 Z M296.000892,18 L296.000892,20 L294.000892,20 L294.000892,18 L296.000892,18 Z M194.000892,18 L194.000892,20 L192.000892,20 L192.000892,18 L194.000892,18 Z M44.0008923,18 L44.0008923,20 L42.0008923,20 L42.0008923,18 L44.0008923,18 Z M20.0008923,18 L20.0008923,20 L18.0008923,20 L18.0008923,18 L20.0008923,18 Z M290.000892,18 L290.000892,20 L288.000892,20 L288.000892,18 L290.000892,18 Z M92.0008923,18 L92.0008923,20 L90.0008923,20 L90.0008923,18 L92.0008923,18 Z M170.000892,18 L170.000892,20 L168.000892,20 L168.000892,18 L170.000892,18 Z M26.0008923,18 L26.0008923,20 L24.0008923,20 L24.0008923,18 L26.0008923,18 Z M68.0008923,18 L68.0008923,20 L66.0008923,20 L66.0008923,18 L68.0008923,18 Z M2.00089226,18 L2.00089226,20 L0.000892264464,20 L0.000892264464,18 L2.00089226,18 Z M74.0008923,18 L74.0008923,20 L72.0008923,20 L72.0008923,18 L74.0008923,18 Z M188.000892,18 L188.000892,20 L186.000892,20 L186.000892,18 L188.000892,18 Z M50.0008923,18 L50.0008923,20 L48.0008923,20 L48.0008923,18 L50.0008923,18 Z M104.000892,18 L104.000892,20 L102.000892,20 L102.000892,18 L104.000892,18 Z M14.0008923,18 L14.0008923,20 L12.0008923,20 L12.0008923,18 L14.0008923,18 Z M80.0008923,18 L80.0008923,20 L78.0008923,20 L78.0008923,18 L80.0008923,18 Z M158.000892,18 L158.000892,20 L156.000892,20 L156.000892,18 L158.000892,18 Z M236.000892,18 L236.000892,20 L234.000892,20 L234.000892,18 L236.000892,18 Z M128.000892,18 L128.000892,20 L126.000892,20 L126.000892,18 L128.000892,18 Z M86.0008923,18 L86.0008923,20 L84.0008923,20 L84.0008923,18 L86.0008923,18 Z M152.000892,18 L152.000892,20 L150.000892,20 L150.000892,18 L152.000892,18 Z M56.0008923,18 L56.0008923,20 L54.0008923,20 L54.0008923,18 L56.0008923,18 Z M200.000892,18 L200.000892,20 L198.000892,20 L198.000892,18 L200.000892,18 Z M176.000892,18 L176.000892,20 L174.000892,20 L174.000892,18 L176.000892,18 Z M248.000892,18 L248.000892,20 L246.000892,20 L246.000892,18 L248.000892,18 Z M266.000892,18 L266.000892,20 L264.000892,20 L264.000892,18 L266.000892,18 Z M50.0008923,12 L50.0008923,14 L48.0008923,14 L48.0008923,12 L50.0008923,12 Z M170.000892,12 L170.000892,14 L168.000892,14 L168.000892,12 L170.000892,12 Z M86.0008923,12 L86.0008923,14 L84.0008923,14 L84.0008923,12 L86.0008923,12 Z M290.000892,12 L290.000892,14 L288.000892,14 L288.000892,12 L290.000892,12 Z M68.0008923,12 L68.0008923,14 L66.0008923,14 L66.0008923,12 L68.0008923,12 Z M134.000892,12 L134.000892,14 L132.000892,14 L132.000892,12 L134.000892,12 Z M62.0008923,12 L62.0008923,14 L60.0008923,14 L60.0008923,12 L62.0008923,12 Z M176.000892,12 L176.000892,14 L174.000892,14 L174.000892,12 L176.000892,12 Z M152.000892,12 L152.000892,14 L150.000892,14 L150.000892,12 L152.000892,12 Z M200.000892,12 L200.000892,14 L198.000892,14 L198.000892,12 L200.000892,12 Z M266.000892,12 L266.000892,14 L264.000892,14 L264.000892,12 L266.000892,12 Z M278.000892,12 L278.000892,14 L276.000892,14 L276.000892,12 L278.000892,12 Z M284.000892,12 L284.000892,14 L282.000892,14 L282.000892,12 L284.000892,12 Z M140.000892,12 L140.000892,14 L138.000892,14 L138.000892,12 L140.000892,12 Z M56.0008923,12 L56.0008923,14 L54.0008923,14 L54.0008923,12 L56.0008923,12 Z M92.0008923,12 L92.0008923,14 L90.0008923,14 L90.0008923,12 L92.0008923,12 Z M104.000892,12 L104.000892,14 L102.000892,14 L102.000892,12 L104.000892,12 Z M182.000892,12 L182.000892,14 L180.000892,14 L180.000892,12 L182.000892,12 Z M230.000892,12 L230.000892,14 L228.000892,14 L228.000892,12 L230.000892,12 Z M8.00089226,12 L8.00089226,14 L6.00089226,14 L6.00089226,12 L8.00089226,12 Z M212.000892,12 L212.000892,14 L210.000892,14 L210.000892,12 L212.000892,12 Z M272.000892,12 L272.000892,14 L270.000892,14 L270.000892,12 L272.000892,12 Z M254.000892,12 L254.000892,14 L252.000892,14 L252.000892,12 L254.000892,12 Z M2.00089226,12 L2.00089226,14 L0.000892264464,14 L0.000892264464,12 L2.00089226,12 Z M296.000892,12 L296.000892,14 L294.000892,14 L294.000892,12 L296.000892,12 Z M80.0008923,12 L80.0008923,14 L78.0008923,14 L78.0008923,12 L80.0008923,12 Z M260.000892,12 L260.000892,14 L258.000892,14 L258.000892,12 L260.000892,12 Z M74.0008923,12 L74.0008923,14 L72.0008923,14 L72.0008923,12 L74.0008923,12 Z M14.0008923,12 L14.0008923,14 L12.0008923,14 L12.0008923,12 L14.0008923,12 Z M224.000892,12 L224.000892,14 L222.000892,14 L222.000892,12 L224.000892,12 Z M128.000892,12 L128.000892,14 L126.000892,14 L126.000892,12 L128.000892,12 Z M248.000892,12 L248.000892,14 L246.000892,14 L246.000892,12 L248.000892,12 Z M20.0008923,12 L20.0008923,14 L18.0008923,14 L18.0008923,12 L20.0008923,12 Z M122.000892,12 L122.000892,14 L120.000892,14 L120.000892,12 L122.000892,12 Z M206.000892,12 L206.000892,14 L204.000892,14 L204.000892,12 L206.000892,12 Z M110.000892,12 L110.000892,14 L108.000892,14 L108.000892,12 L110.000892,12 Z M116.000892,12 L116.000892,14 L114.000892,14 L114.000892,12 L116.000892,12 Z M158.000892,12 L158.000892,14 L156.000892,14 L156.000892,12 L158.000892,12 Z M32.0008923,12 L32.0008923,14 L30.0008923,14 L30.0008923,12 L32.0008923,12 Z M44.0008923,12 L44.0008923,14 L42.0008923,14 L42.0008923,12 L44.0008923,12 Z M242.000892,12 L242.000892,14 L240.000892,14 L240.000892,12 L242.000892,12 Z M98.0008923,12 L98.0008923,14 L96.0008923,14 L96.0008923,12 L98.0008923,12 Z M164.000892,12 L164.000892,14 L162.000892,14 L162.000892,12 L164.000892,12 Z M146.000892,12 L146.000892,14 L144.000892,14 L144.000892,12 L146.000892,12 Z M194.000892,12 L194.000892,14 L192.000892,14 L192.000892,12 L194.000892,12 Z M218.000892,12 L218.000892,14 L216.000892,14 L216.000892,12 L218.000892,12 Z M188.000892,12 L188.000892,14 L186.000892,14 L186.000892,12 L188.000892,12 Z M26.0008923,12 L26.0008923,14 L24.0008923,14 L24.0008923,12 L26.0008923,12 Z M236.000892,12 L236.000892,14 L234.000892,14 L234.000892,12 L236.000892,12 Z M38.0008923,12 L38.0008923,14 L36.0008923,14 L36.0008923,12 L38.0008923,12 Z M260.000892,6 L260.000892,8 L258.000892,8 L258.000892,6 L260.000892,6 Z M242.000892,6 L242.000892,8 L240.000892,8 L240.000892,6 L242.000892,6 Z M254.000892,6 L254.000892,8 L252.000892,8 L252.000892,6 L254.000892,6 Z M236.000892,6 L236.000892,8 L234.000892,8 L234.000892,6 L236.000892,6 Z M68.0008923,6 L68.0008923,8 L66.0008923,8 L66.0008923,6 L68.0008923,6 Z M74.0008923,6 L74.0008923,8 L72.0008923,8 L72.0008923,6 L74.0008923,6 Z M20.0008923,6 L20.0008923,8 L18.0008923,8 L18.0008923,6 L20.0008923,6 Z M26.0008923,6 L26.0008923,8 L24.0008923,8 L24.0008923,6 L26.0008923,6 Z M188.000892,6 L188.000892,8 L186.000892,8 L186.000892,6 L188.000892,6 Z M116.000892,6 L116.000892,8 L114.000892,8 L114.000892,6 L116.000892,6 Z M266.000892,6 L266.000892,8 L264.000892,8 L264.000892,6 L266.000892,6 Z M272.000892,6 L272.000892,8 L270.000892,8 L270.000892,6 L272.000892,6 Z M284.000892,6 L284.000892,8 L282.000892,8 L282.000892,6 L284.000892,6 Z M8.00089226,6 L8.00089226,8 L6.00089226,8 L6.00089226,6 L8.00089226,6 Z M32.0008923,6 L32.0008923,8 L30.0008923,8 L30.0008923,6 L32.0008923,6 Z M122.000892,6 L122.000892,8 L120.000892,8 L120.000892,6 L122.000892,6 Z M104.000892,6 L104.000892,8 L102.000892,8 L102.000892,6 L104.000892,6 Z M224.000892,6 L224.000892,8 L222.000892,8 L222.000892,6 L224.000892,6 Z M164.000892,6 L164.000892,8 L162.000892,8 L162.000892,6 L164.000892,6 Z M44.0008923,6 L44.0008923,8 L42.0008923,8 L42.0008923,6 L44.0008923,6 Z M278.000892,6 L278.000892,8 L276.000892,8 L276.000892,6 L278.000892,6 Z M152.000892,6 L152.000892,8 L150.000892,8 L150.000892,6 L152.000892,6 Z M38.0008923,6 L38.0008923,8 L36.0008923,8 L36.0008923,6 L38.0008923,6 Z M50.0008923,6 L50.0008923,8 L48.0008923,8 L48.0008923,6 L50.0008923,6 Z M14.0008923,6 L14.0008923,8 L12.0008923,8 L12.0008923,6 L14.0008923,6 Z M218.000892,6 L218.000892,8 L216.000892,8 L216.000892,6 L218.000892,6 Z M230.000892,6 L230.000892,8 L228.000892,8 L228.000892,6 L230.000892,6 Z M98.0008923,6 L98.0008923,8 L96.0008923,8 L96.0008923,6 L98.0008923,6 Z M206.000892,6 L206.000892,8 L204.000892,8 L204.000892,6 L206.000892,6 Z M290.000892,6 L290.000892,8 L288.000892,8 L288.000892,6 L290.000892,6 Z M212.000892,6 L212.000892,8 L210.000892,8 L210.000892,6 L212.000892,6 Z M296.000892,6 L296.000892,8 L294.000892,8 L294.000892,6 L296.000892,6 Z M194.000892,6 L194.000892,8 L192.000892,8 L192.000892,6 L194.000892,6 Z M170.000892,6 L170.000892,8 L168.000892,8 L168.000892,6 L170.000892,6 Z M158.000892,6 L158.000892,8 L156.000892,8 L156.000892,6 L158.000892,6 Z M86.0008923,6 L86.0008923,8 L84.0008923,8 L84.0008923,6 L86.0008923,6 Z M134.000892,6 L134.000892,8 L132.000892,8 L132.000892,6 L134.000892,6 Z M140.000892,6 L140.000892,8 L138.000892,8 L138.000892,6 L140.000892,6 Z M62.0008923,6 L62.0008923,8 L60.0008923,8 L60.0008923,6 L62.0008923,6 Z M182.000892,6 L182.000892,8 L180.000892,8 L180.000892,6 L182.000892,6 Z M56.0008923,6 L56.0008923,8 L54.0008923,8 L54.0008923,6 L56.0008923,6 Z M146.000892,6 L146.000892,8 L144.000892,8 L144.000892,6 L146.000892,6 Z M176.000892,6 L176.000892,8 L174.000892,8 L174.000892,6 L176.000892,6 Z M128.000892,6 L128.000892,8 L126.000892,8 L126.000892,6 L128.000892,6 Z M92.0008923,6 L92.0008923,8 L90.0008923,8 L90.0008923,6 L92.0008923,6 Z M2.00089226,6 L2.00089226,8 L0.000892264464,8 L0.000892264464,6 L2.00089226,6 Z M110.000892,6 L110.000892,8 L108.000892,8 L108.000892,6 L110.000892,6 Z M80.0008923,6 L80.0008923,8 L78.0008923,8 L78.0008923,6 L80.0008923,6 Z M200.000892,6 L200.000892,8 L198.000892,8 L198.000892,6 L200.000892,6 Z M248.000892,6 L248.000892,8 L246.000892,8 L246.000892,6 L248.000892,6 Z M110.000892,7.10542736e-15 L110.000892,2 L108.000892,2 L108.000892,7.10542736e-15 L110.000892,7.10542736e-15 Z M248.000892,7.10542736e-15 L248.000892,2 L246.000892,2 L246.000892,7.10542736e-15 L248.000892,7.10542736e-15 Z M266.000892,7.10542736e-15 L266.000892,2 L264.000892,2 L264.000892,7.10542736e-15 L266.000892,7.10542736e-15 Z M254.000892,7.10542736e-15 L254.000892,2 L252.000892,2 L252.000892,7.10542736e-15 L254.000892,7.10542736e-15 Z M242.000892,7.10542736e-15 L242.000892,2 L240.000892,2 L240.000892,7.10542736e-15 L242.000892,7.10542736e-15 Z M14.0008923,7.10542736e-15 L14.0008923,2 L12.0008923,2 L12.0008923,7.10542736e-15 L14.0008923,7.10542736e-15 Z M200.000892,7.10542736e-15 L200.000892,2 L198.000892,2 L198.000892,7.10542736e-15 L200.000892,7.10542736e-15 Z M32.0008923,7.10542736e-15 L32.0008923,2 L30.0008923,2 L30.0008923,7.10542736e-15 L32.0008923,7.10542736e-15 Z M158.000892,7.10542736e-15 L158.000892,2 L156.000892,2 L156.000892,7.10542736e-15 L158.000892,7.10542736e-15 Z M26.0008923,7.10542736e-15 L26.0008923,2 L24.0008923,2 L24.0008923,7.10542736e-15 L26.0008923,7.10542736e-15 Z M38.0008923,7.10542736e-15 L38.0008923,2 L36.0008923,2 L36.0008923,7.10542736e-15 L38.0008923,7.10542736e-15 Z M152.000892,7.10542736e-15 L152.000892,2 L150.000892,2 L150.000892,7.10542736e-15 L152.000892,7.10542736e-15 Z M278.000892,7.10542736e-15 L278.000892,2 L276.000892,2 L276.000892,7.10542736e-15 L278.000892,7.10542736e-15 Z M284.000892,7.10542736e-15 L284.000892,2 L282.000892,2 L282.000892,7.10542736e-15 L284.000892,7.10542736e-15 Z M50.0008923,7.10542736e-15 L50.0008923,2 L48.0008923,2 L48.0008923,7.10542736e-15 L50.0008923,7.10542736e-15 Z M62.0008923,7.10542736e-15 L62.0008923,2 L60.0008923,2 L60.0008923,7.10542736e-15 L62.0008923,7.10542736e-15 Z M188.000892,7.10542736e-15 L188.000892,2 L186.000892,2 L186.000892,7.10542736e-15 L188.000892,7.10542736e-15 Z M56.0008923,7.10542736e-15 L56.0008923,2 L54.0008923,2 L54.0008923,7.10542736e-15 L56.0008923,7.10542736e-15 Z M98.0008923,7.10542736e-15 L98.0008923,2 L96.0008923,2 L96.0008923,7.10542736e-15 L98.0008923,7.10542736e-15 Z M122.000892,7.10542736e-15 L122.000892,2 L120.000892,2 L120.000892,7.10542736e-15 L122.000892,7.10542736e-15 Z M272.000892,7.10542736e-15 L272.000892,2 L270.000892,2 L270.000892,7.10542736e-15 L272.000892,7.10542736e-15 Z M104.000892,7.10542736e-15 L104.000892,2 L102.000892,2 L102.000892,7.10542736e-15 L104.000892,7.10542736e-15 Z M230.000892,7.10542736e-15 L230.000892,2 L228.000892,2 L228.000892,7.10542736e-15 L230.000892,7.10542736e-15 Z M224.000892,7.10542736e-15 L224.000892,2 L222.000892,2 L222.000892,7.10542736e-15 L224.000892,7.10542736e-15 Z M116.000892,7.10542736e-15 L116.000892,2 L114.000892,2 L114.000892,7.10542736e-15 L116.000892,7.10542736e-15 Z M86.0008923,7.10542736e-15 L86.0008923,2 L84.0008923,2 L84.0008923,7.10542736e-15 L86.0008923,7.10542736e-15 Z M68.0008923,7.10542736e-15 L68.0008923,2 L66.0008923,2 L66.0008923,7.10542736e-15 L68.0008923,7.10542736e-15 Z M92.0008923,7.10542736e-15 L92.0008923,2 L90.0008923,2 L90.0008923,7.10542736e-15 L92.0008923,7.10542736e-15 Z M290.000892,7.10542736e-15 L290.000892,2 L288.000892,2 L288.000892,7.10542736e-15 L290.000892,7.10542736e-15 Z M80.0008923,7.10542736e-15 L80.0008923,2 L78.0008923,2 L78.0008923,7.10542736e-15 L80.0008923,7.10542736e-15 Z M218.000892,7.10542736e-15 L218.000892,2 L216.000892,2 L216.000892,7.10542736e-15 L218.000892,7.10542736e-15 Z M44.0008923,7.10542736e-15 L44.0008923,2 L42.0008923,2 L42.0008923,7.10542736e-15 L44.0008923,7.10542736e-15 Z M236.000892,7.10542736e-15 L236.000892,2 L234.000892,2 L234.000892,7.10542736e-15 L236.000892,7.10542736e-15 Z M206.000892,7.10542736e-15 L206.000892,2 L204.000892,2 L204.000892,7.10542736e-15 L206.000892,7.10542736e-15 Z M20.0008923,7.10542736e-15 L20.0008923,2 L18.0008923,2 L18.0008923,7.10542736e-15 L20.0008923,7.10542736e-15 Z M296.000892,7.10542736e-15 L296.000892,2 L294.000892,2 L294.000892,7.10542736e-15 L296.000892,7.10542736e-15 Z M128.000892,7.10542736e-15 L128.000892,2 L126.000892,2 L126.000892,7.10542736e-15 L128.000892,7.10542736e-15 Z M176.000892,7.10542736e-15 L176.000892,2 L174.000892,2 L174.000892,7.10542736e-15 L176.000892,7.10542736e-15 Z M146.000892,7.10542736e-15 L146.000892,2 L144.000892,2 L144.000892,7.10542736e-15 L146.000892,7.10542736e-15 Z M8.00089226,7.10542736e-15 L8.00089226,2 L6.00089226,2 L6.00089226,7.10542736e-15 L8.00089226,7.10542736e-15 Z M182.000892,7.10542736e-15 L182.000892,2 L180.000892,2 L180.000892,7.10542736e-15 L182.000892,7.10542736e-15 Z M2.00089226,7.10542736e-15 L2.00089226,2 L0.000892264464,2 L0.000892264464,7.10542736e-15 L2.00089226,7.10542736e-15 Z M140.000892,7.10542736e-15 L140.000892,2 L138.000892,2 L138.000892,7.10542736e-15 L140.000892,7.10542736e-15 Z M134.000892,7.10542736e-15 L134.000892,2 L132.000892,2 L132.000892,7.10542736e-15 L134.000892,7.10542736e-15 Z M74.0008923,7.10542736e-15 L74.0008923,2 L72.0008923,2 L72.0008923,7.10542736e-15 L74.0008923,7.10542736e-15 Z M170.000892,7.10542736e-15 L170.000892,2 L168.000892,2 L168.000892,7.10542736e-15 L170.000892,7.10542736e-15 Z M194.000892,7.10542736e-15 L194.000892,2 L192.000892,2 L192.000892,7.10542736e-15 L194.000892,7.10542736e-15 Z M212.000892,7.10542736e-15 L212.000892,2 L210.000892,2 L210.000892,7.10542736e-15 L212.000892,7.10542736e-15 Z M164.000892,7.10542736e-15 L164.000892,2 L162.000892,2 L162.000892,7.10542736e-15 L164.000892,7.10542736e-15 Z M260.000892,7.10542736e-15 L260.000892,2 L258.000892,2 L258.000892,7.10542736e-15 L260.000892,7.10542736e-15 Z"/>
    <path fill="#FC0A63" d="M14.0008923,72 L14.0008923,74 L12.0008923,74 L12.0008923,72 L14.0008923,72 Z M188.000892,72 L188.000892,74 L186.000892,74 L186.000892,72 L188.000892,72 Z M62.0008923,72 L62.0008923,74 L60.0008923,74 L60.0008923,72 L62.0008923,72 Z M194.000892,72 L194.000892,74 L192.000892,74 L192.000892,72 L194.000892,72 Z M200.000892,72 L200.000892,74 L198.000892,74 L198.000892,72 L200.000892,72 Z M32.0008923,72 L32.0008923,74 L30.0008923,74 L30.0008923,72 L32.0008923,72 Z M74.0008923,72 L74.0008923,74 L72.0008923,74 L72.0008923,72 L74.0008923,72 Z M68.0008923,72 L68.0008923,74 L66.0008923,74 L66.0008923,72 L68.0008923,72 Z M116.000892,72 L116.000892,74 L114.000892,74 L114.000892,72 L116.000892,72 Z M248.000892,72 L248.000892,74 L246.000892,74 L246.000892,72 L248.000892,72 Z M122.000892,72 L122.000892,74 L120.000892,74 L120.000892,72 L122.000892,72 Z M242.000892,72 L242.000892,74 L240.000892,74 L240.000892,72 L242.000892,72 Z M266.000892,72 L266.000892,74 L264.000892,74 L264.000892,72 L266.000892,72 Z M26.0008923,72 L26.0008923,74 L24.0008923,74 L24.0008923,72 L26.0008923,72 Z M128.000892,72 L128.000892,74 L126.000892,74 L126.000892,72 L128.000892,72 Z M272.000892,72 L272.000892,74 L270.000892,74 L270.000892,72 L272.000892,72 Z M284.000892,72 L284.000892,74 L282.000892,74 L282.000892,72 L284.000892,72 Z M80.0008923,72 L80.0008923,74 L78.0008923,74 L78.0008923,72 L80.0008923,72 Z M158.000892,72 L158.000892,74 L156.000892,74 L156.000892,72 L158.000892,72 Z M20.0008923,72 L20.0008923,74 L18.0008923,74 L18.0008923,72 L20.0008923,72 Z M162.334892,71.9994454 L162.334892,73.9994454 L162.000892,74 L162.000892,72 L162.334892,71.9994454 Z M278.000892,72 L278.000892,74 L276.000892,74 L276.000892,72 L278.000892,72 Z M152.000892,72 L152.000892,74 L150.000892,74 L150.000892,72 L152.000892,72 Z M36.4978923,71.9994454 L36.4979626,73.9448242 L36.3698923,73.9994454 L36.0008923,74 L36.0008923,72 L36.4978923,71.9994454 Z M176.000892,72 L176.000892,74 L174.000892,74 L174.000892,72 L176.000892,72 Z M182.000892,72 L182.000892,74 L180.000892,74 L180.000892,72 L182.000892,72 Z M56.0008923,72 L56.0008923,74 L55.5949734,74.0000759 C55.0449451,73.7177163 54.5135146,73.4129929 54.000682,73.0859057 L54.0008923,72 L56.0008923,72 Z M8.00089226,72 L8.00120592,72.5063893 C7.7810504,72.34248 7.56478557,72.1737356 7.35241143,72.0001562 L8.00089226,72 Z M288.627571,72.0003045 C288.423397,72.1529395 288.2149,72.3018357 288.002081,72.4469932 L288.000892,72 Z M204.66001,71.9998677 C204.443572,72.1390716 204.224135,72.2746423 204.001697,72.4065798 L204.000892,72 Z M122.000892,66 L122.000892,68 L120.000892,68 L120.000892,66 L122.000892,66 Z M68.0008923,66 L68.0008923,68 L66.0008923,68 L66.0008923,66 L68.0008923,66 Z M158.000892,66 L158.000892,68 L156.000892,68 L156.000892,66 L158.000892,66 Z M162.334892,65.9994454 L162.334892,67.9994454 L162.000892,68 L162.000892,66 L162.334892,65.9994454 Z M248.000892,66 L248.000892,68 L246.000892,68 L246.000892,66 L248.000892,66 Z M14.0008923,66 L14.0008923,68 L12.0008923,68 L12.0008923,66 L14.0008923,66 Z M74.0008923,66 L74.0008923,68 L72.0008923,68 L72.0008923,66 L74.0008923,66 Z M265.117212,66.0018395 C265.412027,66.0446717 265.706843,66.0833181 266.001658,66.1177789 L266.000892,68 L264.000892,68 L264.000892,66 Z M26.0008923,66 L26.0008923,68 L24.0008923,68 L24.0008923,66 L26.0008923,66 Z M278.000892,66 L278.000892,68 L276.000892,68 L276.000892,66 L278.000892,66 Z M152.000892,66 L152.000892,68 L150.000892,68 L150.000892,66 L152.000892,66 Z M62.0008923,66 L62.0008923,68 L60.0008923,68 L60.0008923,66 L62.0008923,66 Z M86.0008923,66 L86.0008923,68 L84.0008923,68 L84.0008923,66 L86.0008923,66 Z M182.000892,66 L182.000892,68 L180.000892,68 L180.000892,66 L182.000892,66 Z M284.000892,66 L284.000892,68 L282.000892,68 L282.000892,66 L284.000892,66 Z M206.000892,66 L206.000892,68 L204.000892,68 L204.000892,66 L206.000892,66 Z M176.000892,66 L176.000892,68 L174.000892,68 L174.000892,66 L176.000892,66 Z M188.000892,66 L188.000892,68 L186.000892,68 L186.000892,66 L188.000892,66 Z M242.000892,66 L242.000892,68 L240.000892,68 L240.000892,66 L242.000892,66 Z M194.000892,66 L194.000892,68 L192.000892,68 L192.000892,66 L194.000892,66 Z M20.0008923,66 L20.0008923,68 L18.0008923,68 L18.0008923,66 L20.0008923,66 Z M272.001368,66.2434676 L272.000892,68 L270.000892,68 L270.002036,66.3286771 C270.691883,66.3213847 271.358327,66.2929815 272.001368,66.2434676 Z M36.4978923,65.9994454 L36.4978923,67.9994454 L36.0008923,68 L36.0008923,66 L36.4978923,65.9994454 Z M200.000892,66 L200.000892,68 L198.000892,68 L198.000892,66 L200.000892,66 Z M32.0008923,66 L32.0008923,68 L30.0008923,68 L30.0008923,66 L32.0008923,66 Z M128.000892,66 L128.000892,68 L126.000892,68 L126.000892,66 L128.000892,66 Z M80.0008923,66 L80.0008923,68 L78.0008923,68 L78.0008923,66 L80.0008923,66 Z M290.000892,66 L290.000892,68 L288.000892,68 L288.000892,66 L290.000892,66 Z M8.00089226,66 L8.00089226,68 L6.00089226,68 L6.00089226,66 L8.00089226,66 Z M56.0008923,66 L56.0008923,68 L54.0008923,68 L54.0008923,66 L56.0008923,66 Z M116.000892,66 L116.000892,68 L114.000892,68 L114.000892,66 L116.000892,66 Z M50.0008923,66 L50.0008923,68 L48.6862308,68.000635 C48.4482407,67.6619717 48.2198928,67.3140603 48.0011872,66.9569007 L48.0008923,66 L50.0008923,66 Z M110.000892,66 L110.000892,68 L109.221892,67.9994454 L108.568892,65.9994454 L110.000892,66 Z M210.742066,66.0002093 C210.505749,66.3588631 210.259092,66.7088963 210.002096,67.0503087 L210.000892,66 Z M176.000892,60 L176.000892,62 L174.000892,62 L174.000892,60 L176.000892,60 Z M56.0008923,60 L56.0008923,62 L54.0008923,62 L54.0008923,60 L56.0008923,60 Z M200.000892,60 L200.000892,62 L198.000892,62 L198.000892,61.7404454 L198.14933,61.5632324 C198.527877,61.0923021 198.868448,60.571416 199.171044,60.0005742 L200.000892,60 Z M60.0006636,60.685644 C60.2329824,61.1580745 60.4890515,61.596369 60.7688708,62.0005276 L60.0008923,62 Z M290.000892,60 L290.000892,62 L288.000892,62 L288.000892,60 L290.000892,60 Z M116.000892,60 L116.000892,62 L114.000892,62 L114.000892,60 L116.000892,60 Z M8.00089226,60 L8.00089226,62 L6.00089226,62 L6.00089226,60 L8.00089226,60 Z M132.739892,59.9994454 L132.084892,61.9994454 L132.000892,62 L132.000892,60 L132.739892,59.9994454 Z M152.000892,60 L152.000892,62 L150.000892,62 L150.000892,60 L152.000892,60 Z M182.000892,60 L182.000892,62 L180.000892,62 L180.000892,60 L182.000892,60 Z M110.000892,60 L110.000892,62 L108.000892,62 L108.000892,60 L110.000892,60 Z M158.000892,60 L158.000892,62 L156.000892,62 L156.000892,60 L158.000892,60 Z M186.289892,59.9994454 L186.289892,61.9994454 L186.000892,62 L186.000892,60 L186.289892,59.9994454 Z M128.000892,60 L128.000892,62 L126.000892,62 L126.000892,60 L128.000892,60 Z M86.0008923,60 L86.0008923,62 L84.0008923,62 L84.0008923,60 L86.0008923,60 Z M14.0008923,60 L14.0008923,62 L12.0008923,62 L12.0008923,60 L14.0008923,60 Z M122.000892,60 L122.000892,62 L120.000892,62 L120.000178,61.0887048 C120.053442,60.7392767 120.111996,60.3766275 120.175838,60.0007572 L122.000892,60 Z M295.802724,60.0009265 C295.640438,60.6904173 295.460132,61.3568227 295.261806,62.0001425 L294.000892,62 L294.000892,60 Z M80.0008923,60 L80.0008923,62 L78.0008923,62 L78.0008923,60 L80.0008923,60 Z M212.000892,60 L212.000892,62 L210.000892,62 L210.000892,60 L212.000892,60 Z M248.000892,60 L248.000892,62 L246.000892,62 L246.000892,60 L248.000892,60 Z M91.2843858,59.9998079 C91.1249845,60.6872663 90.9445371,61.3541439 90.7430437,62.0004405 L90.0008923,62 L90.0008923,60 Z M206.000892,60 L206.000892,62 L204.000892,62 L204.000892,60 L206.000892,60 Z M162.334892,59.9994454 L162.334892,61.9994454 L162.000892,62 L162.000892,60 L162.334892,59.9994454 Z M50.0008923,60 L50.0008923,62 L48.0008923,62 L48.0008923,60 L50.0008923,60 Z M242.000892,60 L242.000892,62 L240.000892,62 L240.000892,60 L242.000892,60 Z M2.00089226,60 L2.00089226,62 L0.899433751,62.0006919 C0.702202327,61.3541716 0.525890477,60.6873836 0.370498202,60.0003279 L2.00089226,60 Z M284.000892,60 L284.000892,62 L282.125097,62.0003545 C282.636962,61.4022598 283.078091,60.7357869 283.448485,60.0009358 L284.000892,60 Z M86.0008923,54 L86.0008923,56 L84.0008923,56 L84.0008923,54 L86.0008923,54 Z M80.0008923,54 L80.0008923,56 L78.0008923,56 L78.0019875,54.9317493 C78.0331707,54.6281143 78.0601199,54.3177633 78.082835,54.0006961 L80.0008923,54 Z M116.000892,54 L116.000892,56 L114.000892,56 L114.000892,54 L116.000892,54 Z M56.0008923,54 L56.0008923,56 L54.0008923,56 L54.0008923,54 L56.0008923,54 Z M206.000892,54 L206.000892,56 L204.000892,56 L204.000892,54 L206.000892,54 Z M13.2698007,54.0002828 C13.3218582,54.6980069 13.3974697,55.3647661 13.496635,56.0005603 L12.0008923,56 L12.0008923,54 Z M296.000892,54 L296.000892,56 L294.000892,56 L294.000892,54 L296.000892,54 Z M92.0008923,54 L92.0020063,55.4844841 C91.9857474,55.6574404 91.9684331,55.8293646 91.9500634,56.0002567 L90.0008923,56 L90.0008923,54 L92.0008923,54 Z M212.000892,54 L212.000892,56 L210.000892,56 L210.000892,54 L212.000892,54 Z M50.0008923,54 L50.0008923,56 L48.0008923,56 L48.0008923,54 L50.0008923,54 Z M290.000892,54 L290.000892,56 L288.000892,56 L288.000892,54 L290.000892,54 Z M278.000892,54 L278.000892,56 L276.000892,56 L276.000892,54 L278.000892,54 Z M2.00089226,54 L2.00089226,56 L0.000892264464,56 L0.000892264464,54 L2.00089226,54 Z M242.000892,54 L242.000892,56 L240.000892,56 L240.000892,54 L242.000892,54 Z M248.000892,54 L248.000892,56 L246.000892,56 L246.000892,54 L248.000892,54 Z M186.289892,53.9994454 L186.289892,55.9994454 L186.000892,56 L186.000892,54 L186.289892,53.9994454 Z M284.000892,54 L284.001508,54.8852669 C283.758034,55.2923023 283.515436,55.664316 283.273713,56.001308 L282.000892,56 L282.000892,54 L284.000892,54 Z M110.000892,54 L110.000892,56 L108.000892,56 L108.000892,54 L110.000892,54 Z M128.000892,54 L128.000892,56 L126.000892,56 L126.000892,54 L128.000892,54 Z M182.000892,54 L182.000892,56 L180.000892,56 L180.000892,54 L182.000892,54 Z M176.000892,54 L176.000892,56 L174.000892,56 L174.000892,54 L176.000892,54 Z M162.334892,53.9994454 L162.334892,55.9994454 L162.000892,56 L162.000892,54 L162.334892,53.9994454 Z M8.00089226,54 L8.00089226,56 L6.00089226,56 L6.00089226,54 L8.00089226,54 Z M272.000892,54 L272.000892,56 L270.000892,56 L270.000892,54 L272.000892,54 Z M134.000892,54 L134.000892,56 L132.000892,56 L132.000892,54 L134.000892,54 Z M158.000892,54 L158.000892,56 L156.000892,56 L156.000892,54 L158.000892,54 Z M152.000892,54 L152.000892,56 L150.000892,56 L150.000892,54 L152.000892,54 Z M122.000892,54 L122.000892,56 L120.945502,55.9993293 C121.096608,55.2752197 121.241336,54.6085074 121.379687,53.9991924 L122.000892,54 Z M266.000892,54 L266.000892,56 L264.547577,56.0006631 C264.400909,55.8438453 264.257417,55.682166 264.117103,55.515625 C264.078018,55.4692342 264.039251,55.4225583 264.000801,55.3755972 L264.000892,54 L266.000892,54 Z M116.000892,48 L116.000892,50 L114.000892,50 L114.000892,48 L116.000892,48 Z M182.000892,48 L182.000892,50 L180.000892,50 L180.000892,48 L182.000892,48 Z M296.000892,48 L296.000892,50 L294.000892,50 L294.000892,48 L296.000892,48 Z M92.0008923,48 L92.0008923,50 L90.0008923,50 L90.0008923,48 L92.0008923,48 Z M86.0008923,48 L86.0008923,50 L84.0008923,50 L84.0008923,48 L86.0008923,48 Z M158.000892,48 L158.000892,50 L156.000892,50 L156.000892,48 L158.000892,48 Z M242.000892,48 L242.000892,50 L240.000892,50 L240.000892,48 L242.000892,48 Z M134.000892,48 L134.000892,50 L132.000892,50 L132.000892,48 L134.000892,48 Z M186.289892,47.9994454 L186.289892,49.9994454 L186.000892,50 L186.000892,48 L186.289892,47.9994454 Z M272.000892,48 L272.000892,50 L270.000892,50 L270.000892,48 L272.000892,48 Z M110.000892,48 L110.000892,50 L108.000892,50 L108.000892,48 L110.000892,48 Z M248.000892,48 L248.000892,50 L246.000892,50 L246.000892,48 L248.000892,48 Z M56.0008923,48 L56.0008923,50 L54.0008923,50 L54.0008923,48 L56.0008923,48 Z M128.000892,48 L128.000892,50 L126.000892,50 L126.000892,48 L128.000892,48 Z M266.000892,48 L266.000892,50 L264.000892,50 L264.000892,48 L266.000892,48 Z M162.334892,47.9994454 L162.334892,49.9994454 L162.000892,50 L162.000892,48 L162.334892,47.9994454 Z M282.009261,48.0004618 L284.000892,48 L284.000892,50 L282.000892,50 L282.000892,48.0074454 L282.009261,48.0004618 L282.009261,48.0004618 Z M8.00089226,48 L8.00089226,50 L6.00089226,50 L6.00089226,48 L8.00089226,48 Z M152.000892,48 L152.000892,50 L150.000892,50 L150.000892,48 L152.000892,48 Z M276.000662,49.1375068 C276.619778,49.4364606 277.352927,49.5859375 278.200111,49.5859375 L278.000892,49.5814454 L278.000892,50 L276.000892,50 Z M50.0008923,48 L50.0008923,50 L48.0008923,50 L48.0008923,48 L50.0008923,48 Z M13.38925,47.998558 C13.3103449,48.6404312 13.2541359,49.3074426 13.220623,49.999592 L12.0008923,50 L12.0008923,48 Z M176.000892,48 L176.000892,50 L174.000892,50 L174.000892,48 L176.000892,48 Z M206.000892,48 L206.000892,50 L204.000892,50 L204.000892,48 L206.000892,48 Z M290.000892,48 L290.000892,50 L288.000892,50 L288.000892,48 L290.000892,48 Z M2.00089226,48 L2.00089226,50 L0.000892264464,50 L0.000892264464,48 L2.00089226,48 Z M212.000892,48 L212.000892,50 L210.000892,50 L210.000892,48 L212.000892,48 Z M104.000892,48 L104.000892,50 L103.348892,49.9994454 L102.695892,47.9994454 L104.000892,48 Z M80.0008923,48 L80.0008923,50 L78.1539029,49.9988116 C78.1317294,49.3041744 78.0914171,48.6377944 78.0329658,47.9996715 L80.0008923,48 Z M229.260892,47.9994454 L228.033607,49.0131836 L228.000892,48.9734454 L228.000892,48 L229.260892,47.9994454 Z M186.289892,41.9994454 L186.289892,43.9994454 L186.000892,44 L186.000892,42 L186.289892,41.9994454 Z M266.000892,42 L266.000892,44 L264.000892,44 L264.000892,42 L266.000892,42 Z M182.000892,42 L182.000892,44 L180.000892,44 L180.000892,42 L182.000892,42 Z M86.0008923,42 L86.0008923,44 L84.0008923,44 L84.0008923,42 L86.0008923,42 Z M14.0008923,42 L14.0008923,44 L12.0008923,44 L12.0008923,42 L14.0008923,42 Z M152.000892,42 L152.000892,44 L150.000892,44 L150.000892,42 L152.000892,42 Z M206.000892,42 L206.000892,44 L204.000892,44 L204.000892,42 L206.000892,42 Z M8.00089226,42 L8.00089226,44 L6.00089226,44 L6.00089226,42 L8.00089226,42 Z M158.000892,42 L158.000892,44 L156.000892,44 L156.000892,42 L158.000892,42 Z M212.000892,42 L212.000892,44 L210.000892,44 L210.000892,42 L212.000892,42 Z M134.000892,42 L134.000892,44 L132.000892,44 L132.000892,42 L134.000892,42 Z M50.0008923,42 L50.0008923,44 L48.0008923,44 L48.0008923,42 L50.0008923,42 Z M91.1462334,41.9994899 C91.3097588,42.6471587 91.454067,43.3139378 91.5791582,43.9998272 L90.0008923,44 L90.0008923,42 Z M110.000892,42 L110.000892,44 L108.000892,44 L108.000892,42 L110.000892,42 Z M176.000892,42 L176.000892,44 L174.000892,44 L174.000892,42 L176.000892,42 Z M114.816892,41.9994454 L115.353892,43.9994454 L114.000892,44 L114.000892,42 L114.816892,41.9994454 Z M242.000892,42 L242.000892,44 L240.000892,44 L240.000892,42 L242.000892,42 Z M230.000892,42 L230.000892,44 L228.000892,44 L228.000892,42 L230.000892,42 Z M104.000892,42 L104.000892,44 L102.000892,44 L102.000892,42 L104.000892,42 Z M290.000892,42 L290.000892,44 L288.000892,44 L288.000892,42 L290.000892,42 Z M296.000892,42 L296.000892,44 L294.000892,44 L294.000892,42 L296.000892,42 Z M56.0008923,42 L56.0008923,44 L54.0008923,44 L54.0008923,42 L56.0008923,42 Z M272.000892,42 L272.000892,44 L270.000892,44 L270.000892,42 L272.000892,42 Z M128.000892,42 L128.000892,44 L126.000892,44 L126.000892,42 L128.000892,42 Z M236.000892,42 L236.003491,42.0646448 C235.431974,42.6933851 234.785882,43.3386977 234.065214,44.0005826 L234.000892,44 L234.000892,42 L236.000892,42 Z M80.0008923,42 L80.0008923,44 L78.0008923,44 L78.0008923,42 L80.0008923,42 Z M248.000892,42 L248.000892,44 L246.000892,44 L246.000892,42 L248.000892,42 Z M162.334892,41.9994454 L162.334892,43.9994454 L162.000892,44 L162.000892,42 L162.334892,41.9994454 Z M284.000892,42 L284.000892,44 L283.622809,43.9992153 C283.611173,43.2973264 283.536773,42.6306982 283.399609,41.9993307 L284.000892,42 Z M2.00089226,42 L2.00089226,44 L0.295927921,43.9992905 C0.449891257,43.3183289 0.626326937,42.6518231 0.825234961,41.9997733 L2.00089226,42 Z M224.000892,42 L224.000892,44 L223.954892,43.9994454 L222.327892,41.9994454 L224.000892,42 Z M138.637892,41.9994454 L138.000892,43.9424454 L138.000892,42 L138.637892,41.9994454 Z M200.000892,42 L200.002134,43.8962021 C199.762389,43.2063391 199.478532,42.5741809 199.150566,41.9997273 L200.000892,42 Z M200.000892,36 L200.000892,38 L198.000892,38 L198.000892,36 L200.000892,36 Z M104.000892,36 L104.000892,38 L102.000892,38 L102.000892,36 L104.000892,36 Z M230.000892,36 L230.000892,38 L228.000892,38 L228.000892,36 L230.000892,36 Z M248.000892,36 L248.000892,38 L246.000892,38 L246.000892,36 L248.000892,36 Z M110.000892,36 L110.000892,38 L108.000892,38 L108.000892,36 L110.000892,36 Z M176.000892,36 L176.000892,38 L174.000892,38 L174.000892,36 L176.000892,36 Z M162.334892,35.9994454 L162.334892,37.9994454 L162.000892,38 L162.000892,36 L162.334892,35.9994454 Z M14.0008923,36 L14.0008923,38 L12.0008923,38 L12.0008923,36 L14.0008923,36 Z M50.0008923,36 L50.0008923,38 L48.0008923,38 L48.0008923,36 L50.0008923,36 Z M272.000892,36 L272.000892,38 L270.000892,38 L270.000892,36 L272.000892,36 Z M20.0008923,36 L20.0006865,37.4942718 C19.6156049,37.6352027 19.2452597,37.8035861 18.889651,37.9994223 L18.0008923,38 L18.0008923,36 L20.0008923,36 Z M236.000892,36 L236.000892,38 L234.000892,38 L234.000892,36 L236.000892,36 Z M32.0008923,36 L32.0008923,38 L30.0008923,38 L30.0008923,36 L32.0008923,36 Z M134.000892,36 L134.000892,38 L132.000892,38 L132.000892,36 L134.000892,36 Z M266.000892,36 L266.000892,38 L264.000892,38 L264.000892,36 L266.000892,36 Z M294.336236,35.9995046 C294.642946,36.6379312 294.922123,37.3044514 295.173769,37.9990652 L294.000892,38 L294.000892,36 Z M284.000892,36 L284.000892,38 L282.000892,38 L282.000892,36 L284.000892,36 Z M8.00089226,36 L8.00089226,38 L6.00089226,38 L6.00089226,36 L8.00089226,36 Z M290.000892,36 L290.000892,38 L288.000892,38 L288.000892,36 L290.000892,36 Z M86.0008923,36 L86.0008923,38 L84.0008923,38 L84.0008923,36 L86.0008923,36 Z M158.000892,36 L158.000892,38 L156.000892,38 L156.000892,36 L158.000892,36 Z M242.000892,36 L242.000892,38 L240.000892,38 L240.000892,36 L242.000892,36 Z M211.046191,35.9989955 C211.387968,36.5097307 211.706362,37.0400025 212.001374,37.589811 L212.000892,38 L210.000892,38 L210.000892,36 Z M56.0008923,36 L56.0008923,38 L54.0008923,38 L54.0008923,36 L56.0008923,36 Z M80.0008923,36 L80.0008923,38 L78.0008923,38 L78.0008923,36 L80.0008923,36 Z M206.000892,36 L206.000892,38 L204.000892,38 L204.000892,36 L206.000892,36 Z M182.000892,36 L182.000892,38 L180.000892,38 L180.000892,36 L182.000892,36 Z M188.000892,36 L188.000892,37.4904454 L186.289955,37.4907227 L186.289892,37.9994454 L186.000892,38 L186.000892,36 L188.000892,36 Z M152.000892,36 L152.000892,38 L150.000892,38 L150.000892,36 L152.000892,36 Z M62.0008923,36 L62.0008923,38 L60.0008923,38 L60.0008923,36 L62.0008923,36 Z M140.000892,36 L140.000892,37.8384454 L139.947892,37.9994454 L138.000892,38 L138.000892,36 L140.000892,36 Z M128.000892,36 L128.000892,38 L126.000892,38 L126.000892,36.8124454 L126.222892,35.9994454 L128.000892,36 Z M74.0008923,36 L74.0008923,38 L73.0650964,37.9991008 C72.7273325,37.8103083 72.3729327,37.6454944 72.001897,37.5046592 L72.0008923,36 L74.0008923,36 Z M194.000892,36 L194.001198,37.9884526 C193.377044,37.8064288 192.710427,37.6743307 192.001347,37.5921582 L192.000892,36 L194.000892,36 Z M278.000892,36 L278.000756,36.8937673 C277.258734,36.9365518 276.592123,37.1240032 276.000923,37.4561216 L276.000892,36 L278.000892,36 Z M26.0008923,36 L26.0013025,37.1298426 C25.3497211,37.042609 24.6833564,36.9874058 24.0022084,36.9642333 L24.0008923,36 L26.0008923,36 Z M68.0008923,36 L68.0011445,36.8876006 C67.2960794,36.903263 66.629432,36.9742883 66.0012023,37.1006764 L66.0008923,36 L68.0008923,36 Z M188.000892,30 L188.000892,32 L186.000892,32 L186.000892,30 L188.000892,30 Z M242.000892,30 L242.000892,32 L240.000892,32 L240.000892,30 L242.000892,30 Z M38.0008923,30 L38.0008923,31.1844454 L37.6838923,31.9994454 L36.0008923,32 L36.0008923,30 L38.0008923,30 Z M194.000892,30 L194.000892,32 L192.000892,32 L192.000892,30 L194.000892,30 Z M278.000892,30 L278.000892,32 L276.000892,32 L276.000892,30 L278.000892,30 Z M104.000892,30 L104.000892,32 L102.000892,32 L102.000892,30 L104.000892,30 Z M200.000892,30 L200.000892,32 L198.000892,32 L198.000892,30 L200.000892,30 Z M32.0008923,30 L32.0008923,32 L30.0008923,32 L30.0008923,30 L32.0008923,30 Z M272.000892,30 L272.000892,32 L270.000892,32 L270.000892,30 L272.000892,30 Z M289.709026,29.9991222 C289.807359,30.0796332 289.904814,30.1614367 290.00139,30.2445327 L290.000892,32 L288.000892,32 L288.000892,30 Z M84.0019621,30.4802011 C84.6111812,30.9497908 85.1879673,31.4560355 85.7323203,31.9989355 L84.0008923,32 Z M134.000892,30 L134.000892,32 L132.000892,32 L132.000892,30 L134.000892,30 Z M152.000892,30 L152.000892,32 L150.000892,32 L150.000892,30 L152.000892,30 Z M20.0008923,30 L20.0008923,32 L18.0008923,32 L18.0008923,30 L20.0008923,30 Z M110.000892,30 L110.000892,32 L108.000892,32 L108.000892,30 L110.000892,30 Z M248.000892,30 L248.000892,32 L246.000892,32 L246.000892,30 L248.000892,30 Z M236.000892,30 L236.000892,32 L234.000892,32 L234.000892,30.0334454 L234.042892,29.9994454 L236.000892,30 Z M62.0008923,30 L62.0008923,32 L60.0008923,32 L60.0008923,30 L62.0008923,30 Z M26.0008923,30 L26.0008923,32 L24.0008923,32 L24.0008923,30 L26.0008923,30 Z M284.000892,30 L284.000892,32 L282.000892,32 L282.000892,30 L284.000892,30 Z M162.334892,29.9994454 L162.334892,31.9994454 L162.000892,32 L162.000892,30 L162.334892,29.9994454 Z M80.0008923,30 L80.0008923,32 L78.0008923,32 L78.0008923,30 L80.0008923,30 Z M68.0008923,30 L68.0008923,32 L66.0008923,32 L66.0008923,30 L68.0008923,30 Z M176.000892,30 L176.000892,32 L174.000892,32 L174.000892,30 L176.000892,30 Z M158.000892,30 L158.000892,32 L156.000892,32 L156.000892,30 L158.000892,30 Z M204.505188,29.9987239 C205.021335,30.2891246 205.520158,30.5989533 206.001658,30.9282102 L206.000892,32 L204.000892,32 L204.000892,30 Z M56.0008923,30 L56.0008923,32 L54.0008923,32 L54.0008923,30 L56.0008923,30 Z M182.000892,30 L182.000892,32 L180.000892,32 L180.000892,30 L182.000892,30 Z M14.0008923,30 L14.0008923,32 L12.0008923,32 L12.0008923,30 L14.0008923,30 Z M140.000892,30 L140.000892,32 L138.000892,32 L138.000892,30 L140.000892,30 Z M74.0008923,30 L74.0008923,32 L72.0008923,32 L72.0008923,30 L74.0008923,30 Z M128.000892,30 L128.000892,32 L127.312892,31.9994454 L127.857892,29.9994454 L128.000892,30 Z M8.00051683,30.9793884 L8.00089226,32 L6.83110728,31.9987093 C7.20718698,31.6443888 7.59699016,31.3046151 8.00051683,30.9793884 Z M98.0008923,30 L98.0008923,32 L97.4758923,31.9994454 L96.8228923,29.9994454 L98.0008923,30 Z M266.000926,30.1266873 L266.000892,32 L264.169884,31.999648 C264.485611,31.6133387 264.821777,31.2425251 265.178382,30.887207 C265.444161,30.6223879 265.718342,30.3688813 266.000926,30.1266873 Z"/>
  </g>
</svg>
