<svg xmlns="http://www.w3.org/2000/svg" viewBox="0 0 2049 130"><g fill="none" fill-rule="evenodd" opacity=".2"><circle cx="651" cy="102" r="9" fill="#9899FF" fill-opacity=".5"/><circle cx="1108" cy="92" r="9" fill="#9899FF" fill-opacity=".5"/><circle cx="1970" cy="96" r="9" fill="#9899FF" fill-opacity=".5"/><circle cx="2033" cy="105" r="9" fill="#9899FF" fill-opacity=".5"/><circle cx="2003" cy="109" r="9" fill="#9899FF" fill-opacity=".5"/><circle cx="1009" cy="112" r="9" fill="#9899FF" fill-opacity=".5"/><circle cx="582" cy="116" r="10" fill="#9899FF" fill-opacity=".5"/><circle cx="1915" cy="112" r="10" fill="#9899FF" fill-opacity=".5"/><circle cx="310" cy="97" r="10" fill="#9899FF" fill-opacity=".5"/><circle cx="1836" cy="116" r="10" fill="#9899FF" fill-opacity=".5"/><circle cx="681" cy="111" r="10" fill="#9899FF" fill-opacity=".5"/><circle cx="510" cy="83" r="15" fill="#9899FF" fill-opacity=".5"/><circle cx="1010" cy="87" r="15" fill="#9899FF" fill-opacity=".5"/><circle cx="485" cy="106" r="15" fill="#9899FF" fill-opacity=".5"/><circle cx="1280" cy="107" r="15" fill="#9899FF" fill-opacity=".5"/><circle cx="841" cy="117" r="13" fill="#9899FF" fill-opacity=".5"/><circle cx="1878" cy="82" r="13" fill="#9899FF" fill-opacity=".5"/><circle cx="868" cy="114" r="13" fill="#9899FF" fill-opacity=".5"/><circle cx="929" cy="96" r="13" fill="#9899FF" fill-opacity=".5"/><circle cx="1613" cy="100" r="13" fill="#9899FF" fill-opacity=".5"/><circle cx="1858" cy="85" r="3" fill="#9899FF" fill-opacity=".5"/><circle cx="1879" cy="109" r="3" fill="#9899FF" fill-opacity=".5"/><circle cx="2046" cy="95" r="3" fill="#9899FF" fill-opacity=".5"/><circle cx="943" cy="115" r="3" fill="#9899FF" fill-opacity=".5"/><circle cx="1009" cy="76" r="3" fill="#9899FF" fill-opacity=".5"/><circle cx="1989" cy="98" r="4" fill="#9899FF" fill-opacity=".5"/><circle cx="616" cy="93" r="4" fill="#9899FF" fill-opacity=".5"/><circle cx="1305" cy="89" r="4" fill="#9899FF" fill-opacity=".5"/><circle cx="2040" cy="101" r="4" fill="#9899FF" fill-opacity=".5"/><circle cx="873" cy="103" r="4" fill="#9899FF" fill-opacity=".5"/><circle cx="942" cy="108" r="9" fill="#9899FF" fill-opacity=".5"/><circle cx="1959" cy="111" r="9" fill="#9899FF" fill-opacity=".5"/><circle cx="614" cy="115" r="9" fill="#9899FF" fill-opacity=".5"/><circle cx="803" cy="119" r="10" fill="#9899FF" fill-opacity=".5"/><circle cx="498" cy="93" r="10" fill="#9899FF" fill-opacity=".5"/><circle cx="688" cy="98" r="10" fill="#9899FF" fill-opacity=".5"/><circle cx="650" cy="85" r="10" fill="#9899FF" fill-opacity=".5"/><circle cx="603" cy="111" r="15" fill="#9899FF" fill-opacity=".5"/><circle cx="1386" cy="84" r="15" fill="#9899FF" fill-opacity=".5"/><circle cx="1723" cy="96" r="15" fill="#9899FF" fill-opacity=".5"/><circle cx="395" cy="85" r="13" fill="#9899FF" fill-opacity=".5"/><circle cx="334" cy="113" r="13" fill="#9899FF" fill-opacity=".5"/><circle cx="1803" cy="106" r="13" fill="#9899FF" fill-opacity=".5"/><circle cx="193" cy="83" r="13" fill="#9899FF" fill-opacity=".5"/><circle cx="1667" cy="80" r="13" fill="#9899FF" fill-opacity=".5"/><circle cx="1709" cy="97" r="3" fill="#9899FF" fill-opacity=".5"/><circle cx="2003" cy="88" r="3" fill="#9899FF" fill-opacity=".5"/><circle cx="636" cy="105" r="3" fill="#9899FF" fill-opacity=".5"/><circle cx="618" cy="79" r="3" fill="#9899FF" fill-opacity=".5"/><circle cx="658" cy="70" r="3" fill="#9899FF" fill-opacity=".5"/><circle cx="806" cy="82" r="4" fill="#9899FF" fill-opacity=".5"/><circle cx="1017" cy="78" r="4" fill="#9899FF" fill-opacity=".5"/><circle cx="948" cy="71" r="4" fill="#9899FF" fill-opacity=".5"/><circle cx="1916" cy="71" r="4" fill="#9899FF" fill-opacity=".5"/><circle cx="567" cy="78" r="4" fill="#9899FF" fill-opacity=".5"/><circle cx="713" cy="104" r="9" fill="#9899FF" fill-opacity=".5"/><circle cx="1269" cy="121" r="9" fill="#9899FF" fill-opacity=".5"/><circle cx="2040" cy="108" r="9" fill="#9899FF" fill-opacity=".5"/><circle cx="948" cy="115" r="9" fill="#9899FF" fill-opacity=".5"/><circle cx="519" cy="109" r="10" fill="#9899FF" fill-opacity=".5"/><circle cx="1696" cy="115" r="10" fill="#9899FF" fill-opacity=".5"/><circle cx="1324" cy="85" r="10" fill="#9899FF" fill-opacity=".5"/><circle cx="871" cy="114" r="15" fill="#9899FF" fill-opacity=".5"/><circle cx="2012" cy="86" r="13" fill="#9899FF" fill-opacity=".5"/><circle cx="347" cy="97" r="13" fill="#9899FF" fill-opacity=".5"/><circle cx="1895" cy="124" r="3" fill="#9899FF" fill-opacity=".5"/><circle cx="661" cy="121" r="4" fill="#9899FF" fill-opacity=".5"/><circle cx="1873" cy="126" r="4" fill="#9899FF" fill-opacity=".5"/><circle cx="661" cy="102" r="9" fill="#9899FF" fill-opacity=".5"/><circle cx="1389" cy="109" r="9" fill="#9899FF" fill-opacity=".5"/><circle cx="1887" cy="99" r="9" fill="#9899FF" fill-opacity=".5"/><circle cx="948" cy="113" r="9" fill="#9899FF" fill-opacity=".5"/><circle cx="526" cy="107" r="10" fill="#9899FF" fill-opacity=".5"/><circle cx="1710" cy="113" r="10" fill="#9899FF" fill-opacity=".5"/><circle cx="837" cy="113" r="10" fill="#9899FF" fill-opacity=".5"/><circle cx="147" cy="114" r="10" fill="#9899FF" fill-opacity=".5"/><circle cx="949" cy="106" r="15" fill="#9899FF" fill-opacity=".5"/><circle cx="1396" cy="87" r="15" fill="#9899FF" fill-opacity=".5"/><circle cx="448" cy="80" r="13" fill="#9899FF" fill-opacity=".5"/><circle cx="1822" cy="110" r="13" fill="#9899FF" fill-opacity=".5"/><circle cx="1102" cy="103" r="13" fill="#9899FF" fill-opacity=".5"/><circle cx="1872" cy="114" r="3" fill="#9899FF" fill-opacity=".5"/><circle cx="1826" cy="111" r="3" fill="#9899FF" fill-opacity=".5"/><circle cx="1925" cy="111" r="3" fill="#9899FF" fill-opacity=".5"/><circle cx="957" cy="111" r="3" fill="#9899FF" fill-opacity=".5"/><circle cx="605" cy="107" r="4" fill="#9899FF" fill-opacity=".5"/><circle cx="1235" cy="113" r="4" fill="#9899FF" fill-opacity=".5"/><circle cx="1693" cy="82" r="4" fill="#9899FF" fill-opacity=".5"/><circle cx="968" cy="78" r="9" fill="#9899FF" fill-opacity=".2" transform="rotate(180 968 78)"/><circle cx="137" cy="119" r="9" fill="#9899FF" fill-opacity=".2" transform="rotate(180 137 119)"/><circle cx="65" cy="97" r="9" fill="#9899FF" fill-opacity=".2" transform="rotate(180 65 97)"/><circle cx="607" cy="104" r="10" fill="#9899FF" fill-opacity=".2" transform="rotate(180 607 104)"/><circle cx="1361" cy="115" r="10" fill="#9899FF" fill-opacity=".2" transform="rotate(180 1361 115)"/><circle cx="1422" cy="108" r="15" fill="#9899FF" fill-opacity=".2" transform="rotate(180 1422 108)"/><circle cx="1543" cy="87" r="15" fill="#9899FF" fill-opacity=".2" transform="rotate(180 1543 87)"/><circle cx="1019" cy="83" r="15" fill="#9899FF" fill-opacity=".2" transform="rotate(180 1019 83)"/><circle cx="322" cy="115" r="15" fill="#9899FF" fill-opacity=".2" transform="rotate(180 322 115)"/><circle cx="1904" cy="99" r="13" fill="#9899FF" fill-opacity=".2" transform="rotate(180 1904 99)"/><circle cx="180" cy="88" r="13" fill="#9899FF" fill-opacity=".2" transform="rotate(180 180 88)"/><circle cx="330" cy="85" r="3" fill="#9899FF" fill-opacity=".2" transform="rotate(180 330 85)"/><circle cx="142" cy="86" r="3" fill="#9899FF" fill-opacity=".2" transform="rotate(180 142 86)"/><circle cx="129" cy="75" r="3" fill="#9899FF" fill-opacity=".2" transform="rotate(180 129 75)"/><circle cx="1214" cy="94" r="3" fill="#9899FF" fill-opacity=".2" transform="rotate(180 1214 94)"/><circle cx="1416" cy="103" r="3" fill="#9899FF" fill-opacity=".2" transform="rotate(180 1416 103)"/><circle cx="176" cy="72" r="4" fill="#9899FF" fill-opacity=".2" transform="rotate(180 176 72)"/><circle cx="1690" cy="77" r="4" fill="#9899FF" fill-opacity=".2" transform="rotate(180 1690 77)"/><circle cx="1529" cy="110" r="4" fill="#9899FF" fill-opacity=".2" transform="rotate(180 1529 110)"/><circle cx="1003" cy="117" r="4" fill="#9899FF" fill-opacity=".2" transform="rotate(180 1003 117)"/><circle cx="868" cy="101" r="4" fill="#9899FF" fill-opacity=".2" transform="rotate(180 868 101)"/><circle cx="334" cy="105" r="4" fill="#9899FF" fill-opacity=".2" transform="rotate(180 334 105)"/><circle cx="1367" cy="101" r="9" fill="#9899FF" fill-opacity=".2" transform="rotate(180 1367 101)"/><circle cx="170" cy="100" r="9" fill="#9899FF" fill-opacity=".2" transform="rotate(180 170 100)"/><circle cx="211" cy="106" r="9" fill="#9899FF" fill-opacity=".2" transform="rotate(180 211 106)"/><circle cx="101" cy="113" r="9" fill="#9899FF" fill-opacity=".2" transform="rotate(180 101 113)"/><circle cx="1695" cy="77" r="10" fill="#9899FF" fill-opacity=".2" transform="rotate(180 1695 77)"/><circle cx="883" cy="112" r="10" fill="#9899FF" fill-opacity=".2" transform="rotate(180 883 112)"/><circle cx="1792" cy="103" r="10" fill="#9899FF" fill-opacity=".2" transform="rotate(180 1792 103)"/><circle cx="1456" cy="109" r="10" fill="#9899FF" fill-opacity=".2" transform="rotate(180 1456 109)"/><circle cx="1514" cy="85" r="10" fill="#9899FF" fill-opacity=".2" transform="rotate(180 1514 85)"/><circle cx="1982" cy="103" r="15" fill="#9899FF" fill-opacity=".2" transform="rotate(180 1982 103)"/><circle cx="1698" cy="102" r="15" fill="#9899FF" fill-opacity=".2" transform="rotate(180 1698 102)"/><circle cx="980" cy="96" r="15" fill="#9899FF" fill-opacity=".2" transform="rotate(180 980 96)"/><circle cx="701" cy="86" r="15" fill="#9899FF" fill-opacity=".2" transform="rotate(180 701 86)"/><circle cx="122" cy="13" r="13" fill="#9899FF" fill-opacity=".2" transform="rotate(180 122 13)"/><circle cx="1706" cy="85" r="13" fill="#9899FF" fill-opacity=".2" transform="rotate(180 1706 85)"/><circle cx="1412" cy="117" r="13" fill="#9899FF" fill-opacity=".2" transform="rotate(180 1412 117)"/><circle cx="1192" cy="116" r="13" fill="#9899FF" fill-opacity=".2" transform="rotate(180 1192 116)"/><circle cx="462" cy="90" r="13" fill="#9899FF" fill-opacity=".2" transform="rotate(180 462 90)"/><circle cx="611" cy="73" r="3" fill="#9899FF" fill-opacity=".2" transform="rotate(180 611 73)"/><circle cx="170" cy="82" r="3" fill="#9899FF" fill-opacity=".2" transform="rotate(180 170 82)"/><circle cx="137" cy="103" r="3" fill="#9899FF" fill-opacity=".2" transform="rotate(180 137 103)"/><circle cx="1711" cy="91" r="3" fill="#9899FF" fill-opacity=".2" transform="rotate(180 1711 91)"/><circle cx="1663" cy="100" r="3" fill="#9899FF" fill-opacity=".2" transform="rotate(180 1663 100)"/><circle cx="370" cy="104" r="4" fill="#9899FF" fill-opacity=".2" transform="rotate(180 370 104)"/><circle cx="1424" cy="88" r="4" fill="#9899FF" fill-opacity=".2" transform="rotate(180 1424 88)"/><circle cx="1108" cy="92" r="4" fill="#9899FF" fill-opacity=".2" transform="rotate(180 1108 92)"/><circle cx="1320" cy="99" r="4" fill="#9899FF" fill-opacity=".2" transform="rotate(180 1320 99)"/><circle cx="244" cy="99" r="4" fill="#9899FF" fill-opacity=".2" transform="rotate(180 244 99)"/><circle cx="1705" cy="101" r="4" fill="#9899FF" fill-opacity=".2" transform="rotate(180 1705 101)"/><circle cx="1332" cy="102" r="4" fill="#9899FF" fill-opacity=".2" transform="rotate(180 1332 102)"/><circle cx="1694" cy="92" r="4" fill="#9899FF" fill-opacity=".2" transform="rotate(180 1694 92)"/><circle cx="106" cy="110" r="9" fill="#9899FF" fill-opacity=".2" transform="rotate(180 106 110)"/><circle cx="1821" cy="110" r="9" fill="#9899FF" fill-opacity=".2" transform="rotate(180 1821 110)"/><circle cx="619" cy="116" r="10" fill="#9899FF" fill-opacity=".2" transform="rotate(180 619 116)"/><circle cx="1894" cy="107" r="10" fill="#9899FF" fill-opacity=".2" transform="rotate(180 1894 107)"/><circle cx="139" cy="115" r="10" fill="#9899FF" fill-opacity=".2" transform="rotate(180 139 115)"/><circle cx="1587" cy="109" r="10" fill="#9899FF" fill-opacity=".2" transform="rotate(180 1587 109)"/><circle cx="758" cy="113" r="15" fill="#9899FF" fill-opacity=".2" transform="rotate(180 758 113)"/><circle cx="1332" cy="111" r="15" fill="#9899FF" fill-opacity=".2" transform="rotate(180 1332 111)"/><circle cx="896" cy="98" r="15" fill="#9899FF" fill-opacity=".2" transform="rotate(180 896 98)"/><circle cx="1088" cy="110" r="13" fill="#9899FF" fill-opacity=".2" transform="rotate(180 1088 110)"/><circle cx="74" cy="84" r="13" fill="#9899FF" fill-opacity=".2" transform="rotate(180 74 84)"/><circle cx="1559" cy="111" r="13" fill="#9899FF" fill-opacity=".2" transform="rotate(180 1559 111)"/><circle cx="551" cy="117" r="13" fill="#9899FF" fill-opacity=".2" transform="rotate(180 551 117)"/><circle cx="572" cy="107" r="3" fill="#9899FF" fill-opacity=".2" transform="rotate(180 572 107)"/><circle cx="78" cy="113" r="3" fill="#9899FF" fill-opacity=".2" transform="rotate(180 78 113)"/><circle cx="384" cy="105" r="3" fill="#9899FF" fill-opacity=".2" transform="rotate(180 384 105)"/><circle cx="1325" cy="102" r="3" fill="#9899FF" fill-opacity=".2" transform="rotate(180 1325 102)"/><circle cx="1652" cy="109" r="3" fill="#9899FF" fill-opacity=".2" transform="rotate(180 1652 109)"/><circle cx="1244" cy="108" r="3" fill="#9899FF" fill-opacity=".2" transform="rotate(180 1244 108)"/><circle cx="1462" cy="107" r="3" fill="#9899FF" fill-opacity=".2" transform="rotate(180 1462 107)"/><circle cx="864" cy="114" r="4" fill="#9899FF" fill-opacity=".2" transform="rotate(180 864 114)"/><circle cx="1390" cy="120" r="4" fill="#9899FF" fill-opacity=".2" transform="rotate(180 1390 120)"/><circle cx="725" cy="107" r="4" fill="#9899FF" fill-opacity=".2" transform="rotate(180 725 107)"/><circle cx="1012" cy="105" r="4" fill="#9899FF" fill-opacity=".2" transform="rotate(180 1012 105)"/><circle cx="963" cy="107" r="4" fill="#9899FF" fill-opacity=".2" transform="rotate(180 963 107)"/><circle cx="670" cy="114" r="4" fill="#9899FF" fill-opacity=".2" transform="rotate(180 670 114)"/><circle cx="153" cy="114" r="9" fill="#9899FF" fill-opacity=".2" transform="rotate(180 153 114)"/><circle cx="1813" cy="112" r="9" fill="#9899FF" fill-opacity=".2" transform="rotate(180 1813 112)"/><circle cx="472" cy="110" r="10" fill="#9899FF" fill-opacity=".2" transform="rotate(180 472 110)"/><circle cx="668" cy="83" r="15" fill="#9899FF" fill-opacity=".2" transform="rotate(180 668 83)"/><circle cx="1379" cy="114" r="15" fill="#9899FF" fill-opacity=".2" transform="rotate(180 1379 114)"/><circle cx="799" cy="115" r="15" fill="#9899FF" fill-opacity=".2" transform="rotate(180 799 115)"/><circle cx="297" cy="108" r="15" fill="#9899FF" fill-opacity=".2" transform="rotate(180 297 108)"/><circle cx="246" cy="112" r="13" fill="#9899FF" fill-opacity=".2" transform="rotate(180 246 112)"/><circle cx="1685" cy="90" r="13" fill="#9899FF" fill-opacity=".2" transform="rotate(180 1685 90)"/><circle cx="1385" cy="104" r="3" fill="#9899FF" fill-opacity=".2" transform="rotate(180 1385 104)"/><circle cx="1700" cy="116" r="3" fill="#9899FF" fill-opacity=".2" transform="rotate(180 1700 116)"/><circle cx="1666" cy="111" r="3" fill="#9899FF" fill-opacity=".2" transform="rotate(180 1666 111)"/><circle cx="609" cy="110" r="4" fill="#9899FF" fill-opacity=".2" transform="rotate(180 609 110)"/><circle cx="1425" cy="124" r="4" fill="#9899FF" fill-opacity=".2" transform="rotate(180 1425 124)"/><circle cx="952" cy="123" r="4" fill="#9899FF" fill-opacity=".2" transform="rotate(180 952 123)"/><circle cx="1691" cy="104" r="4" fill="#9899FF" fill-opacity=".2" transform="rotate(180 1691 104)"/><circle cx="620" cy="88" r="4" fill="#9899FF" fill-opacity=".2" transform="rotate(180 620 88)"/><circle cx="802" cy="118" r="4" fill="#9899FF" fill-opacity=".2" transform="rotate(180 802 118)"/><path fill="#6162A6" d="M1892 129h-2v-2h2zM1772 125h-2v-2h2zM1802 123h-2v-2h2zM1787 122h-2v-2h2zM1892 120h-2v-2h2zM1697 129h-2v-2h2zM1727 127h-2v-2h2zM1757 127h-2v-2h2zM1667 126h-2v-2h2zM1697 124h-2v-2h2zM1727 122h-2v-2h2zM1817 119h-2v-2h2zM1742 117h-2v-2h2zM1787 117h-2v-2h2zM1892 115h-2v-2h2zM1802 113h-2v-2h2zM1757 79h-2v-2h2zM1367 122h-2v-2h2zM1367 127h-2v-2h2z"/><path fill="#9899FF" d="M1065.5 127h1v-1h-1zM1065.5 123h1v-1h-1zM1065.5 119h1v-1h-1zM1065.5 115h1v-1h-1zM1065.5 111h1v-1h-1zM1065.5 107h1v-1h-1zM1080.5 101h1v-1h-1zM1080.5 97h1v-1h-1zM1065.5 88h1v-1h-1zM1095.5 124h1v-1h-1zM1110.5 128h1v-1h-1zM1110.5 124h1v-1h-1zM1110.5 120h1v-1h-1zM1110.5 116h1v-1h-1zM1110.5 112h1v-1h-1zM1110.5 108h1v-1h-1zM1110.5 104h1v-1h-1zM1110.5 100h1v-1h-1zM1110.5 96h1v-1h-1zM1110.5 92h1v-1h-1zM1110.5 88h1v-1h-1zM1140.5 127h1v-1h-1zM1140.5 108h1v-1h-1zM1170.5 122h1v-1h-1zM1170.5 118h1v-1h-1zM1170.5 114h1v-1h-1zM1170.5 110h1v-1h-1zM1170.5 106h1v-1h-1zM1170.5 102h1v-1h-1zM1170.5 98h1v-1h-1zM1170.5 94h1v-1h-1zM1215.5 127h1v-1h-1zM1215.5 123h1v-1h-1zM1215.5 119h1v-1h-1zM1215.5 115h1v-1h-1zM1215.5 111h1v-1h-1zM1260.5 129h1v-1h-1zM1260.5 125h1v-1h-1zM1260.5 121h1v-1h-1zM1260.5 112h1v-1h-1zM1260.5 108h1v-1h-1zM1260.5 99h1v-1h-1zM1290.5 130h1v-1h-1zM1290.5 126h1v-1h-1zM1290.5 122h1v-1h-1zM1290.5 118h1v-1h-1zM1290.5 114h1v-1h-1zM1290.5 110h1v-1h-1zM1290.5 106h1v-1h-1zM1335.5 124h1v-1h-1zM1350.5 130h1v-1h-1zM1350.5 126h1v-1h-1zM1350.5 122h1v-1h-1zM1350.5 118h1v-1h-1zM1440.5 87h1v-1h-1zM1440.5 83h1v-1h-1zM1530.5 83h1v-1h-1zM1395.5 106h1v-1h-1zM1395.5 102h1v-1h-1zM1890.5 88h1v-1h-1zM1530.5 87h1v-1h-1zM1755.5 87h1v-1h-1zM1890.5 84h1v-1h-1zM1755.5 83h1v-1h-1zM1950.5 78h1v-1h-1zM1410.5 128h1v-1h-1zM1410.5 124h1v-1h-1zM1410.5 120h1v-1h-1zM1410.5 116h1v-1h-1zM1455.5 104h1v-1h-1zM1575.5 102h1v-1h-1zM1440.5 101h1v-1h-1zM1455.5 100h1v-1h-1zM1500.5 100h1v-1h-1zM1530.5 100h1v-1h-1zM1590.5 100h1v-1h-1zM1500.5 96h1v-1h-1zM1530.5 96h1v-1h-1zM1785.5 96h1v-1h-1zM1800.5 96h1v-1h-1zM1800.5 100h1v-1h-1zM1725.5 100h1v-1h-1zM1755.5 104h1v-1h-1zM1530.5 104h1v-1h-1zM1560.5 106h1v-1h-1zM1455.5 108h1v-1h-1zM1440.5 105h1v-1h-1zM1470.5 105h1v-1h-1zM1500.5 104h1v-1h-1zM1590.5 104h1v-1h-1zM1560.5 102h1v-1h-1zM1890.5 101h1v-1h-1zM1755.5 100h1v-1h-1zM1755.5 96h1v-1h-1zM1740.5 108h1v-1h-1zM1425.5 130h1v-1h-1zM1425.5 126h1v-1h-1zM1425.5 122h1v-1h-1zM1425.5 118h1v-1h-1zM1440.5 113h1v-1h-1zM1470.5 113h1v-1h-1zM1455.5 112h1v-1h-1zM1500.5 112h1v-1h-1zM1440.5 109h1v-1h-1zM1470.5 109h1v-1h-1zM1500.5 108h1v-1h-1zM1530.5 108h1v-1h-1zM1590.5 108h1v-1h-1zM1695.5 107h1v-1h-1zM1575.5 106h1v-1h-1zM1635.5 106h1v-1h-1zM1725.5 104h1v-1h-1zM1785.5 104h1v-1h-1zM1800.5 104h1v-1h-1zM1860.5 101h1v-1h-1zM1785.5 100h1v-1h-1zM1905.5 98h1v-1h-1zM1740.5 112h1v-1h-1zM1530.5 112h1v-1h-1zM1575.5 114h1v-1h-1zM1530.5 116h1v-1h-1zM1440.5 117h1v-1h-1zM1470.5 121h1v-1h-1zM1455.5 120h1v-1h-1zM1560.5 118h1v-1h-1zM1575.5 118h1v-1h-1zM1470.5 117h1v-1h-1zM1455.5 116h1v-1h-1zM1500.5 116h1v-1h-1zM1590.5 116h1v-1h-1zM1560.5 114h1v-1h-1zM1635.5 114h1v-1h-1zM1590.5 112h1v-1h-1zM1755.5 112h1v-1h-1zM1695.5 111h1v-1h-1zM1560.5 110h1v-1h-1zM1575.5 110h1v-1h-1zM1635.5 110h1v-1h-1zM1725.5 108h1v-1h-1zM1755.5 108h1v-1h-1zM1800.5 108h1v-1h-1zM1905.5 106h1v-1h-1zM2025.5 106h1v-1h-1zM1860.5 105h1v-1h-1zM1890.5 105h1v-1h-1zM1935.5 103h1v-1h-1zM1905.5 102h1v-1h-1zM1950.5 101h1v-1h-1zM1890.5 97h1v-1h-1zM1635.5 122h1v-1h-1zM1590.5 125h1v-1h-1zM1530.5 125h1v-1h-1zM1605.5 126h1v-1h-1zM1515.5 126h1v-1h-1zM1485.5 130h1v-1h-1zM1545.5 129h1v-1h-1zM1440.5 126h1v-1h-1zM1485.5 126h1v-1h-1zM1575.5 126h1v-1h-1zM1470.5 125h1v-1h-1zM1500.5 125h1v-1h-1zM1545.5 125h1v-1h-1zM1560.5 122h1v-1h-1zM1575.5 122h1v-1h-1zM1545.5 121h1v-1h-1zM1665.5 121h1v-1h-1zM1695.5 119h1v-1h-1zM1635.5 118h1v-1h-1zM1710.5 116h1v-1h-1zM1695.5 115h1v-1h-1zM1665.5 112h1v-1h-1zM1710.5 112h1v-1h-1zM1725.5 112h1v-1h-1zM1785.5 112h1v-1h-1zM1770.5 110h1v-1h-1zM2025.5 110h1v-1h-1zM1950.5 109h1v-1h-1zM1785.5 108h1v-1h-1zM2040.5 108h1v-1h-1zM1935.5 107h1v-1h-1zM1965.5 107h1v-1h-1zM1950.5 105h1v-1h-1zM2040.5 104h1v-1h-1zM1965.5 103h1v-1h-1zM1950.5 97h1v-1h-1zM2010.5 130h1v-1h-1zM1950.5 129h1v-1h-1zM1815.5 128h1v-1h-1zM1875.5 128h1v-1h-1zM1905.5 127h1v-1h-1zM1785.5 126h1v-1h-1zM2025.5 126h1v-1h-1zM1935.5 125h1v-1h-1zM1890.5 124h1v-1h-1zM1860.5 123h1v-1h-1zM1965.5 123h1v-1h-1zM2025.5 122h1v-1h-1zM1950.5 121h1v-1h-1zM1860.5 119h1v-1h-1zM1905.5 119h1v-1h-1zM1950.5 117h1v-1h-1zM2040.5 116h1v-1h-1zM1965.5 115h1v-1h-1zM2025.5 114h1v-1h-1zM2010.5 113h1v-1h-1zM2040.5 112h1v-1h-1zM1935.5 111h1v-1h-1zM1965.5 111h1v-1h-1zM1995.5 130h1v-1h-1zM2025.5 130h1v-1h-1zM1860.5 127h1v-1h-1zM1965.5 127h1v-1h-1zM1995.5 126h1v-1h-1zM1950.5 125h1v-1h-1zM2040.5 124h1v-1h-1zM1905.5 123h1v-1h-1zM2010.5 121h1v-1h-1zM2040.5 120h1v-1h-1zM1965.5 119h1v-1h-1zM2025.5 118h1v-1h-1zM2010.5 117h1v-1h-1zM1905.5 115h1v-1h-1zM1950.5 113h1v-1h-1z"/><path fill="#9899FF" fill-opacity=".5" d="M390 109h2v-2h-2zM495 109h2v-2h-2zM420 112h2v-2h-2zM495 114h2v-2h-2zM510 118h2v-2h-2zM585 123h2v-2h-2zM615 126h2v-2h-2zM600 125h2v-2h-2zM570 121h2v-2h-2zM480 115h2v-2h-2zM525 112h2v-2h-2zM315 108h2v-2h-2zM360 106h2v-2h-2zM390 104h2v-2h-2zM420 103h2v-2h-2zM315 103h2v-2h-2zM360 101h2v-2h-2z"/><path fill="#9899FF" fill-opacity=".9" d="M390 94h2v-2h-2zM495 96h2v-2h-2zM435 96h2v-2h-2zM315 94h2v-2h-2zM360 91h2v-2h-2zM75 91h2v-2h-2zM150 90h2v-2h-2zM705 126h2v-2h-2zM705 121h2v-2h-2zM705 116h2v-2h-2zM705 111h2v-2h-2zM705 106h2v-2h-2zM705 96h2v-2h-2zM705 91h2v-2h-2zM705 86h2v-2h-2zM705 81h2v-2h-2zM735 116h2v-2h-2z"/><path fill="#9899FF" fill-opacity=".5" d="M765 127h2v-2h-2zM765 118h2v-2h-2zM765 113h2v-2h-2zM765 108h2v-2h-2z"/><path fill="#9899FF" fill-opacity=".9" d="M765 103h2v-2h-2zM810 122h2v-2h-2zM810 117h2v-2h-2zM810 112h2v-2h-2zM810 107h2v-2h-2zM810 102h2v-2h-2zM825 126h2v-2h-2zM825 121h2v-2h-2zM825 116h2v-2h-2zM825 111h2v-2h-2zM870 84h2v-2h-2zM870 89h2v-2h-2zM870 79h2v-2h-2zM930 130h2v-2h-2zM930 125h2v-2h-2zM930 120h2v-2h-2zM930 110h2v-2h-2zM930 105h2v-2h-2zM930 100h2v-2h-2zM930 95h2v-2h-2zM930 90h2v-2h-2zM960 122h2v-2h-2zM960 97h2v-2h-2zM960 92h2v-2h-2zM960 82h2v-2h-2zM975 128h2v-2h-2zM975 118h2v-2h-2zM975 113h2v-2h-2zM975 103h2v-2h-2zM960 87h2v-2h-2zM990 122h2v-2h-2zM1005 106h2v-2h-2zM1080 126h2v-2h-2zM1095 120h2v-2h-2zM1095 115h2v-2h-2zM1125 121h2v-2h-2zM1125 116h2v-2h-2zM1155 127h2v-2h-2zM1185 130h2v-2h-2zM1185 125h2v-2h-2zM1185 120h2v-2h-2zM1185 115h2v-2h-2zM1185 110h2v-2h-2zM1185 105h2v-2h-2zM1937 130h-2v-2h2zM2042 129h-2v-2h2zM2012 126h-2v-2h2zM1937 121h-2v-2h2zM1772 130h-2v-2h2zM1802 128h-2v-2h2zM1742 127h-2v-2h2zM1712 126h-2v-2h2zM1817 124h-2v-2h2zM1757 122h-2v-2h2zM1772 120h-2v-2h2zM1757 117h-2v-2h2zM1937 116h-2v-2h2zM1862 115h-2v-2h2zM1592 130h-2v-2h2zM1637 127h-2v-2h2zM1742 122h-2v-2h2zM1712 121h-2v-2h2zM1802 118h-2v-2h2zM1727 117h-2v-2h2zM1772 115h-2v-2h2zM1817 114h-2v-2h2zM1907 111h-2v-2h2zM1862 110h-2v-2h2zM1892 110h-2v-2h2zM1397 126h-2v-2h2zM1397 121h-2v-2h2zM1397 116h-2v-2h2zM1397 111h-2v-2h2zM1502 87h-2v-2h2zM1892 80h-2v-2h2zM1502 82h-2v-2h2zM1532 79h-2v-2h2zM1757 74h-2v-2h2zM1442 79h-2v-2h2z"/><path fill="#9899FF" fill-opacity=".66" d="M1337 129h-2v-2h2zM1337 120h-2v-2h2zM1337 115h-2v-2h2zM1337 110h-2v-2h2zM1337 105h-2v-2h2zM1307 130h-2v-2h2zM1307 125h-2v-2h2zM1262 117h-2v-2h2zM1262 104h-2v-2h2zM1262 95h-2v-2h2zM1262 90h-2v-2h2zM1262 85h-2v-2h2zM1262 80h-2v-2h2zM1142 104h-2v-2h2zM1082 116h-2v-2h2zM1082 121h-2v-2h2zM1082 111h-2v-2h2zM1082 106h-2v-2h2zM1067 103h-2v-2h2zM1067 98h-2v-2h2zM1067 93h-2v-2h2zM1067 84h-2v-2h2zM1067 79h-2v-2h2zM1022 121h-2v-2h2zM1007 126h-2v-2h2zM1007 116h-2v-2h2zM1007 111h-2v-2h2zM1022 106h-2v-2h2zM1022 101h-2v-2h2zM1022 126h-2v-2h2zM1022 116h-2v-2h2zM1022 111h-2v-2h2zM1007 101h-2v-2h2zM1007 96h-2v-2h2zM992 127h-2v-2h2zM1007 121h-2v-2h2zM917 96h-2v-2h2zM857 126h-2v-2h2zM842 78h-2v-2h2z"/><path fill="#9899FF" fill-opacity=".25" d="M977 123h-2v-2h2zM992 117h-2v-2h2zM977 108h-2v-2h2zM977 98h-2v-2h2zM977 93h-2v-2h2zM977 88h-2v-2h2zM977 83h-2v-2h2zM977 78h-2v-2h2zM932 115h-2v-2h2zM917 128h-2v-2h2zM917 111h-2v-2h2zM917 106h-2v-2h2zM917 101h-2v-2h2zM857 121h-2v-2h2zM857 116h-2v-2h2zM842 93h-2v-2h2zM842 88h-2v-2h2zM842 83h-2v-2h2z"/><path fill="#9899FF" fill-opacity=".8" d="M797 128h-2v-2h2zM797 123h-2v-2h2zM797 118h-2v-2h2z"/><path fill="#9899FF" fill-opacity=".25" d="M737 126h-2v-2h2zM737 121h-2v-2h2zM737 111h-2v-2h2zM572 90h-2v-2h2zM362 86h-2v-2h2zM422 85h-2v-2h2zM317 85h-2v-2h2zM197 84h-2v-2h2z"/><path fill="#9899FF" fill-opacity=".9" d="M182 130h-2v-2h2z"/><path fill="#9899FF" fill-opacity=".25" d="M107 128h-2v-2h2zM92 125h-2v-2h2zM47 125h-2v-2h2z"/><path fill="#9899FF" d="M285.5 130h1v-1h-1zM45.5 129h1v-1h-1zM240.5 128h1v-1h-1z"/><path fill="#9899FF" fill-opacity=".9" d="M210.5 128h1v-1h-1z"/><path fill="#9899FF" d="M60.5 128h1v-1h-1z"/><path fill="#9899FF" fill-opacity=".9" d="M195.5 127h1v-1h-1z"/><path fill="#9899FF" d="M180.5 125h1v-1h-1zM75.5 125h1v-1h-1zM15.5 125h1v-1h-1zM60.5 124h1v-1h-1zM150.5 122h1v-1h-1zM15.5 121h1v-1h-1zM90.5 120h1v-1h-1zM45.5 120h1v-1h-1zM.5 120h1v-1h-1zM15.5 117h1v-1h-1zM90.5 116h1v-1h-1zM60.5 116h1v-1h-1zM15.5 113h1v-1h-1zM75.5 112h1v-1h-1zM30.5 112h1v-1h-1zM15.5 109h1v-1h-1zM120.5 108h1v-1h-1zM75.5 108h1v-1h-1zM30.5 108h1v-1h-1zM15.5 105h1v-1h-1zM75.5 104h1v-1h-1zM390.5 130h1v-1h-1zM360.5 130h1v-1h-1zM405.5 128h1v-1h-1zM315.5 128h1v-1h-1zM345.5 127h1v-1h-1zM225.5 127h1v-1h-1zM285.5 126h1v-1h-1zM165.5 125h1v-1h-1zM240.5 124h1v-1h-1zM120.5 124h1v-1h-1z"/><path fill="#9899FF" fill-opacity=".9" d="M195.5 123h1v-1h-1z"/><path fill="#9899FF" d="M105.5 123h1v-1h-1zM120.5 120h1v-1h-1zM60.5 120h1v-1h-1zM30.5 120h1v-1h-1zM105.5 119h1v-1h-1zM75.5 116h1v-1h-1zM30.5 116h1v-1h-1zM105.5 115h1v-1h-1zM120.5 112h1v-1h-1zM90.5 112h1v-1h-1zM105.5 111h1v-1h-1zM90.5 108h1v-1h-1zM105.5 107h1v-1h-1zM150.5 106h1v-1h-1zM90.5 104h1v-1h-1zM30.5 104h1v-1h-1zM360.5 126h1v-1h-1zM270.5 126h1v-1h-1zM315.5 124h1v-1h-1zM330.5 123h1v-1h-1zM225.5 123h1v-1h-1zM180.5 121h1v-1h-1zM255.5 120h1v-1h-1z"/><path fill="#9899FF" fill-opacity=".9" d="M210.5 119h1v-1h-1z"/><path fill="#9899FF" d="M150.5 118h1v-1h-1zM120.5 116h1v-1h-1zM150.5 114h1v-1h-1zM150.5 110h1v-1h-1z"/><path fill="#9899FF" fill-opacity=".9" d="M195.5 109h1v-1h-1zM195.5 105h1v-1h-1z"/><path fill="#9899FF" d="M150.5 102h1v-1h-1z"/><path fill="#9899FF" fill-opacity=".9" d="M195.5 101h1v-1h-1z"/><path fill="#9899FF" d="M15.5 101h1v-1h-1z"/><path fill="#9899FF" fill-opacity=".9" d="M210.5 115h1v-1h-1z"/><path fill="#9899FF" d="M330.5 115h1v-1h-1zM300.5 118h1v-1h-1zM330.5 119h1v-1h-1zM360.5 122h1v-1h-1zM405.5 124h1v-1h-1zM390.5 126h1v-1h-1zM420.5 128h1v-1h-1zM540.5 129h1v-1h-1zM480.5 128h1v-1h-1zM450.5 128h1v-1h-1zM435.5 127h1v-1h-1zM420.5 124h1v-1h-1zM345.5 123h1v-1h-1zM300.5 122h1v-1h-1zM420.5 120h1v-1h-1zM315.5 120h1v-1h-1zM360.5 118h1v-1h-1zM270.5 117h1v-1h-1zM315.5 116h1v-1h-1zM270.5 113h1v-1h-1zM360.5 110h1v-1h-1zM420.5 116h1v-1h-1zM540.5 125h1v-1h-1zM615.5 130h1v-1h-1zM600.5 129h1v-1h-1zM570.5 129h1v-1h-1zM585.5 127h1v-1h-1zM510.5 126h1v-1h-1zM570.5 125h1v-1h-1zM525.5 124h1v-1h-1zM510.5 122h1v-1h-1zM495.5 122h1v-1h-1zM525.5 120h1v-1h-1zM480.5 119h1v-1h-1zM450.5 119h1v-1h-1zM495.5 118h1v-1h-1zM390.5 117h1v-1h-1zM450.5 115h1v-1h-1zM360.5 114h1v-1h-1zM435.5 113h1v-1h-1zM390.5 113h1v-1h-1zM315.5 112h1v-1h-1zM330.5 111h1v-1h-1zM435.5 109h1v-1h-1zM570.5 116h1v-1h-1zM585.5 118h1v-1h-1zM615.5 121h1v-1h-1zM600.5 120h1v-1h-1zM615.5 117h1v-1h-1zM600.5 116h1v-1h-1zM525.5 116h1v-1h-1zM585.5 114h1v-1h-1zM615.5 113h1v-1h-1zM510.5 113h1v-1h-1zM570.5 112h1v-1h-1zM585.5 110h1v-1h-1zM480.5 110h1v-1h-1zM510.5 109h1v-1h-1zM570.5 108h1v-1h-1zM420.5 107h1v-1h-1zM510.5 105h1v-1h-1zM435.5 105h1v-1h-1zM495.5 104h1v-1h-1zM495.5 100h1v-1h-1zM90.5 100h1v-1h-1zM30.5 100h1v-1h-1zM315.5 98h1v-1h-1zM150.5 98h1v-1h-1z"/><path fill="#9899FF" fill-opacity=".9" d="M195.5 97h1v-1h-1z"/><path fill="#9899FF" d="M30.5 96h1v-1h-1zM75.5 95h1v-1h-1zM150.5 94h1v-1h-1zM660.5 130h1v-1h-1zM660.5 126h1v-1h-1zM660.5 122h1v-1h-1zM660.5 118h1v-1h-1zM420.5 93h1v-1h-1zM570.5 94h1v-1h-1zM435.5 91h1v-1h-1zM420.5 89h1v-1h-1zM390.5 89h1v-1h-1zM315.5 89h1v-1h-1z"/><path fill="#9899FF" fill-opacity=".9" d="M195.5 88h1v-1h-1z"/><path fill="#9899FF" d="M150.5 85h1v-1h-1zM75.5 77h1v-1h-1zM195.5 79h1v-1h-1zM75.5 81h1v-1h-1zM150.5 81h1v-1h-1zM570.5 85h1v-1h-1zM150.5 77h1v-1h-1zM315.5 80h1v-1h-1zM360.5 81h1v-1h-1zM675.5 130h1v-1h-1zM675.5 126h1v-1h-1zM675.5 122h1v-1h-1zM675.5 118h1v-1h-1zM675.5 114h1v-1h-1zM675.5 110h1v-1h-1zM570.5 81h1v-1h-1zM195.5 75h1v-1h-1zM420.5 80h1v-1h-1zM360.5 77h1v-1h-1zM570.5 77h1v-1h-1zM750.5 118h1v-1h-1zM750.5 114h1v-1h-1zM750.5 110h1v-1h-1zM750.5 106h1v-1h-1zM750.5 102h1v-1h-1zM750.5 130h1v-1h-1zM750.5 126h1v-1h-1zM750.5 122h1v-1h-1zM765.5 122h1v-1h-1zM795.5 113h1v-1h-1zM810.5 97h1v-1h-1zM810.5 93h1v-1h-1zM810.5 85h1v-1h-1zM810.5 81h1v-1h-1zM810.5 77h1v-1h-1zM810.5 89h1v-1h-1zM810.5 130h1v-1h-1zM810.5 126h1v-1h-1zM840.5 129h1v-1h-1zM840.5 125h1v-1h-1zM840.5 121h1v-1h-1zM840.5 117h1v-1h-1zM840.5 113h1v-1h-1zM840.5 109h1v-1h-1zM840.5 105h1v-1h-1zM840.5 101h1v-1h-1zM840.5 97h1v-1h-1zM855.5 111h1v-1h-1zM870.5 129h1v-1h-1zM870.5 125h1v-1h-1zM870.5 121h1v-1h-1zM870.5 117h1v-1h-1zM870.5 113h1v-1h-1zM870.5 109h1v-1h-1zM870.5 105h1v-1h-1zM870.5 101h1v-1h-1zM870.5 97h1v-1h-1zM870.5 93h1v-1h-1zM885.5 128h1v-1h-1zM885.5 124h1v-1h-1zM885.5 120h1v-1h-1zM885.5 116h1v-1h-1zM885.5 112h1v-1h-1zM885.5 108h1v-1h-1zM885.5 104h1v-1h-1zM885.5 100h1v-1h-1zM885.5 96h1v-1h-1zM885.5 92h1v-1h-1zM885.5 88h1v-1h-1zM900.5 130h1v-1h-1zM900.5 126h1v-1h-1zM900.5 122h1v-1h-1zM900.5 118h1v-1h-1zM900.5 114h1v-1h-1zM900.5 110h1v-1h-1zM900.5 106h1v-1h-1zM900.5 102h1v-1h-1zM900.5 98h1v-1h-1zM900.5 94h1v-1h-1zM900.5 90h1v-1h-1zM900.5 86h1v-1h-1zM915.5 123h1v-1h-1zM915.5 119h1v-1h-1zM915.5 115h1v-1h-1zM945.5 129h1v-1h-1zM945.5 125h1v-1h-1zM945.5 121h1v-1h-1zM945.5 117h1v-1h-1zM945.5 113h1v-1h-1zM945.5 109h1v-1h-1zM945.5 105h1v-1h-1zM945.5 101h1v-1h-1zM960.5 130h1v-1h-1zM960.5 126h1v-1h-1zM960.5 117h1v-1h-1zM960.5 113h1v-1h-1zM960.5 109h1v-1h-1zM960.5 105h1v-1h-1zM960.5 101h1v-1h-1z"/><path fill="#9899FF" fill-opacity=".9" d="M165 130h2v-2h-2zM255 130h2v-2h-2zM120 129h2v-2h-2zM150 127h2v-2h-2zM30 125h2v-2h-2zM0 125h2v-2H0zM75 121h2v-2h-2zM330 128h2v-2h-2zM300 127h2v-2h-2zM255 125h2v-2h-2zM210 124h2v-2h-2zM270 122h2v-2h-2zM240 120h2v-2h-2zM195 119h2v-2h-2zM195 114h2v-2h-2zM390 122h2v-2h-2zM450 124h2v-2h-2zM525 129h2v-2h-2zM495 127h2v-2h-2zM480 124h2v-2h-2zM435 123h2v-2h-2zM435 118h2v-2h-2zM210 111h2v-2h-2zM270 109h2v-2h-2zM270 104h2v-2h-2z"/><path fill="#9899FF" fill-opacity=".5" d="M615 109h2v-2h-2zM585 106h2v-2h-2zM435 101h2v-2h-2zM75 100h2v-2h-2zM15 97h2v-2h-2zM30 92h2v-2h-2zM420 98h2v-2h-2zM570 99h2v-2h-2zM510 101h2v-2h-2zM615 104h2v-2h-2zM570 104h2v-2h-2zM390 99h2v-2h-2zM360 96h2v-2h-2z"/><path fill="#9899FF" fill-opacity=".9" d="M195 93h2v-2h-2z"/><path fill="#9899FF" fill-opacity=".5" d="M75 86h2v-2h-2zM705 101h2v-2h-2z"/><path fill="#9899FF" d="M1095 129h2v-2h-2zM1125 126h2v-2h-2zM1140 123h2v-2h-2zM1140 118h2v-2h-2zM1140 113h2v-2h-2zM1170 127h2v-2h-2zM1350 114h2v-2h-2zM1350 109h2v-2h-2zM1350 104h2v-2h-2zM1350 99h2v-2h-2zM1440 92h2v-2h-2zM1500 92h2v-2h-2zM1530 92h2v-2h-2zM1950 83h2v-2h-2zM1785 92h2v-2h-2zM1950 88h2v-2h-2zM1440 97h2v-2h-2zM1890 93h2v-2h-2zM1950 93h2v-2h-2zM1755 92h2v-2h-2zM1665 117h2v-2h-2zM1530 121h2v-2h-2zM1515 122h2v-2h-2zM1455 125h2v-2h-2zM1440 122h2v-2h-2zM1500 121h2v-2h-2zM1590 121h2v-2h-2zM1455 130h2v-2h-2zM1470 130h2v-2h-2zM1500 130h2v-2h-2zM1530 130h2v-2h-2zM1560 127h2v-2h-2z"/><path fill="#6162A6" d="M157 129h2v-2h-2zM277 125h2v-2h-2zM247 123h2v-2h-2zM262 122h2v-2h-2zM157 120h2v-2h-2zM352 129h2v-2h-2zM322 127h2v-2h-2zM292 127h2v-2h-2zM382 126h2v-2h-2zM352 124h2v-2h-2zM322 122h2v-2h-2zM232 119h2v-2h-2zM307 117h2v-2h-2zM262 117h2v-2h-2zM157 115h2v-2h-2zM247 113h2v-2h-2zM292 79h2v-2h-2zM682 122h2v-2h-2zM682 127h2v-2h-2z"/><path fill="#9899FF" d="M983.5 127h-1v-1h1zM983.5 123h-1v-1h1zM983.5 119h-1v-1h1zM983.5 115h-1v-1h1zM983.5 111h-1v-1h1zM983.5 107h-1v-1h1zM968.5 101h-1v-1h1zM968.5 97h-1v-1h1zM983.5 88h-1v-1h1zM953.5 124h-1v-1h1zM938.5 128h-1v-1h1zM938.5 124h-1v-1h1zM938.5 120h-1v-1h1zM938.5 116h-1v-1h1zM938.5 112h-1v-1h1zM938.5 108h-1v-1h1zM938.5 104h-1v-1h1zM938.5 100h-1v-1h1zM938.5 96h-1v-1h1zM938.5 92h-1v-1h1zM938.5 88h-1v-1h1zM908.5 127h-1v-1h1zM908.5 108h-1v-1h1zM878.5 122h-1v-1h1zM878.5 118h-1v-1h1zM878.5 114h-1v-1h1zM878.5 110h-1v-1h1zM878.5 106h-1v-1h1zM878.5 102h-1v-1h1zM878.5 98h-1v-1h1zM878.5 94h-1v-1h1zM833.5 127h-1v-1h1zM833.5 123h-1v-1h1zM833.5 119h-1v-1h1zM833.5 115h-1v-1h1zM833.5 111h-1v-1h1zM788.5 129h-1v-1h1zM788.5 125h-1v-1h1zM788.5 121h-1v-1h1zM788.5 112h-1v-1h1zM788.5 108h-1v-1h1zM788.5 99h-1v-1h1zM758.5 130h-1v-1h1zM758.5 126h-1v-1h1zM758.5 122h-1v-1h1zM758.5 118h-1v-1h1zM758.5 114h-1v-1h1zM758.5 110h-1v-1h1zM758.5 106h-1v-1h1zM713.5 124h-1v-1h1zM698.5 130h-1v-1h1zM698.5 126h-1v-1h1zM698.5 122h-1v-1h1zM698.5 118h-1v-1h1zM608.5 87h-1v-1h1zM608.5 83h-1v-1h1zM518.5 83h-1v-1h1zM653.5 106h-1v-1h1zM653.5 102h-1v-1h1zM158.5 88h-1v-1h1zM518.5 87h-1v-1h1zM293.5 87h-1v-1h1zM158.5 84h-1v-1h1zM293.5 83h-1v-1h1zM98.5 78h-1v-1h1zM638.5 128h-1v-1h1zM638.5 124h-1v-1h1zM638.5 120h-1v-1h1zM638.5 116h-1v-1h1zM593.5 104h-1v-1h1zM473.5 102h-1v-1h1zM608.5 101h-1v-1h1zM593.5 100h-1v-1h1zM548.5 100h-1v-1h1zM518.5 100h-1v-1h1zM458.5 100h-1v-1h1zM548.5 96h-1v-1h1zM518.5 96h-1v-1h1zM263.5 96h-1v-1h1zM248.5 96h-1v-1h1zM248.5 100h-1v-1h1zM323.5 100h-1v-1h1zM293.5 104h-1v-1h1zM518.5 104h-1v-1h1zM488.5 106h-1v-1h1zM593.5 108h-1v-1h1zM608.5 105h-1v-1h1zM578.5 105h-1v-1h1zM548.5 104h-1v-1h1zM458.5 104h-1v-1h1zM488.5 102h-1v-1h1zM158.5 101h-1v-1h1zM293.5 100h-1v-1h1zM293.5 96h-1v-1h1zM308.5 108h-1v-1h1zM623.5 130h-1v-1h1zM623.5 126h-1v-1h1zM623.5 122h-1v-1h1zM623.5 118h-1v-1h1zM608.5 113h-1v-1h1zM578.5 113h-1v-1h1zM593.5 112h-1v-1h1zM548.5 112h-1v-1h1zM608.5 109h-1v-1h1zM578.5 109h-1v-1h1zM548.5 108h-1v-1h1zM518.5 108h-1v-1h1zM458.5 108h-1v-1h1zM353.5 107h-1v-1h1zM473.5 106h-1v-1h1zM413.5 106h-1v-1h1zM323.5 104h-1v-1h1zM263.5 104h-1v-1h1zM248.5 104h-1v-1h1zM188.5 101h-1v-1h1zM263.5 100h-1v-1h1zM143.5 98h-1v-1h1zM308.5 112h-1v-1h1zM518.5 112h-1v-1h1zM473.5 114h-1v-1h1zM518.5 116h-1v-1h1zM608.5 117h-1v-1h1zM578.5 121h-1v-1h1zM593.5 120h-1v-1h1zM488.5 118h-1v-1h1zM473.5 118h-1v-1h1zM578.5 117h-1v-1h1zM593.5 116h-1v-1h1zM548.5 116h-1v-1h1zM458.5 116h-1v-1h1zM488.5 114h-1v-1h1zM413.5 114h-1v-1h1zM458.5 112h-1v-1h1zM293.5 112h-1v-1h1zM353.5 111h-1v-1h1zM488.5 110h-1v-1h1zM473.5 110h-1v-1h1zM413.5 110h-1v-1h1zM323.5 108h-1v-1h1zM293.5 108h-1v-1h1zM248.5 108h-1v-1h1zM143.5 106h-1v-1h1zM23.5 106h-1v-1h1zM188.5 105h-1v-1h1zM158.5 105h-1v-1h1zM113.5 103h-1v-1h1zM143.5 102h-1v-1h1zM98.5 101h-1v-1h1zM158.5 97h-1v-1h1zM413.5 122h-1v-1h1zM458.5 125h-1v-1h1zM518.5 125h-1v-1h1zM443.5 126h-1v-1h1zM533.5 126h-1v-1h1zM563.5 130h-1v-1h1zM503.5 129h-1v-1h1zM608.5 126h-1v-1h1zM563.5 126h-1v-1h1zM473.5 126h-1v-1h1zM578.5 125h-1v-1h1zM548.5 125h-1v-1h1zM503.5 125h-1v-1h1zM488.5 122h-1v-1h1zM473.5 122h-1v-1h1zM503.5 121h-1v-1h1zM383.5 121h-1v-1h1zM353.5 119h-1v-1h1zM413.5 118h-1v-1h1zM338.5 116h-1v-1h1zM353.5 115h-1v-1h1zM383.5 112h-1v-1h1zM338.5 112h-1v-1h1zM323.5 112h-1v-1h1zM263.5 112h-1v-1h1zM278.5 110h-1v-1h1zM23.5 110h-1v-1h1zM98.5 109h-1v-1h1zM263.5 108h-1v-1h1zM8.5 108h-1v-1h1zM113.5 107h-1v-1h1zM83.5 107h-1v-1h1zM98.5 105h-1v-1h1zM8.5 104h-1v-1h1zM83.5 103h-1v-1h1zM98.5 97h-1v-1h1zM98.5 129h-1v-1h1zM233.5 128h-1v-1h1zM173.5 128h-1v-1h1zM143.5 127h-1v-1h1zM263.5 126h-1v-1h1zM23.5 126h-1v-1h1zM113.5 125h-1v-1h1zM158.5 124h-1v-1h1zM188.5 123h-1v-1h1zM83.5 123h-1v-1h1zM23.5 122h-1v-1h1zM98.5 121h-1v-1h1zM188.5 119h-1v-1h1zM143.5 119h-1v-1h1zM98.5 117h-1v-1h1zM8.5 116h-1v-1h1zM83.5 115h-1v-1h1zM23.5 114h-1v-1h1zM38.5 113h-1v-1h1zM8.5 112h-1v-1h1zM113.5 111h-1v-1h1zM83.5 111h-1v-1h1zM188.5 127h-1v-1h1zM83.5 127h-1v-1h1zM53.5 126h-1v-1h1zM98.5 125h-1v-1h1zM8.5 124h-1v-1h1zM143.5 123h-1v-1h1zM38.5 121h-1v-1h1zM8.5 120h-1v-1h1zM83.5 119h-1v-1h1zM23.5 118h-1v-1h1zM38.5 117h-1v-1h1zM143.5 115h-1v-1h1zM98.5 113h-1v-1h1z"/><path fill="#9899FF" fill-opacity=".5" d="M1659 109h-2v-2h2zM1554 109h-2v-2h2zM1629 112h-2v-2h2zM1554 114h-2v-2h2zM1539 118h-2v-2h2zM1464 123h-2v-2h2zM1434 126h-2v-2h2zM1449 125h-2v-2h2zM1479 121h-2v-2h2zM1569 115h-2v-2h2zM1524 112h-2v-2h2zM1734 108h-2v-2h2zM1689 106h-2v-2h2zM1659 104h-2v-2h2zM1629 103h-2v-2h2zM1734 103h-2v-2h2zM1689 101h-2v-2h2z"/><path fill="#9899FF" fill-opacity=".9" d="M1659 94h-2v-2h2zM1554 96h-2v-2h2zM1614 96h-2v-2h2zM1734 94h-2v-2h2zM1689 91h-2v-2h2zM1974 91h-2v-2h2zM1899 90h-2v-2h2zM1344 126h-2v-2h2zM1344 121h-2v-2h2zM1344 116h-2v-2h2zM1344 111h-2v-2h2zM1344 106h-2v-2h2zM1344 96h-2v-2h2zM1344 91h-2v-2h2zM1344 86h-2v-2h2zM1344 81h-2v-2h2zM1314 116h-2v-2h2z"/><path fill="#9899FF" fill-opacity=".5" d="M1284 127h-2v-2h2zM1284 118h-2v-2h2zM1284 113h-2v-2h2zM1284 108h-2v-2h2z"/><path fill="#9899FF" fill-opacity=".9" d="M1284 103h-2v-2h2zM1239 122h-2v-2h2zM1239 117h-2v-2h2zM1239 112h-2v-2h2zM1239 107h-2v-2h2zM1239 102h-2v-2h2zM1224 126h-2v-2h2zM1224 121h-2v-2h2zM1224 116h-2v-2h2zM1224 111h-2v-2h2zM1179 84h-2v-2h2zM1179 89h-2v-2h2zM1179 79h-2v-2h2zM1119 130h-2v-2h2zM1119 125h-2v-2h2zM1119 120h-2v-2h2zM1119 110h-2v-2h2zM1119 105h-2v-2h2zM1119 100h-2v-2h2zM1119 95h-2v-2h2zM1119 90h-2v-2h2zM1089 122h-2v-2h2zM1089 97h-2v-2h2zM1089 92h-2v-2h2zM1089 82h-2v-2h2zM1074 128h-2v-2h2zM1074 118h-2v-2h2zM1074 113h-2v-2h2zM1074 103h-2v-2h2zM1089 87h-2v-2h2zM1059 122h-2v-2h2zM1044 106h-2v-2h2zM969 126h-2v-2h2zM954 120h-2v-2h2zM954 115h-2v-2h2zM924 121h-2v-2h2zM924 116h-2v-2h2zM894 127h-2v-2h2zM864 130h-2v-2h2zM864 125h-2v-2h2zM864 120h-2v-2h2zM864 115h-2v-2h2zM864 110h-2v-2h2zM864 105h-2v-2h2zM7 129h2v-2H7zM37 126h2v-2h-2zM112 121h2v-2h-2zM277 130h2v-2h-2zM247 128h2v-2h-2zM307 127h2v-2h-2zM337 126h2v-2h-2zM232 124h2v-2h-2zM292 122h2v-2h-2zM277 120h2v-2h-2zM292 117h2v-2h-2zM112 116h2v-2h-2zM187 115h2v-2h-2zM457 130h2v-2h-2zM412 127h2v-2h-2zM307 122h2v-2h-2zM337 121h2v-2h-2zM247 118h2v-2h-2zM322 117h2v-2h-2zM277 115h2v-2h-2zM232 114h2v-2h-2zM142 111h2v-2h-2zM187 110h2v-2h-2zM157 110h2v-2h-2zM652 126h2v-2h-2zM652 121h2v-2h-2zM652 116h2v-2h-2zM652 111h2v-2h-2zM547 87h2v-2h-2zM157 80h2v-2h-2zM547 82h2v-2h-2zM517 79h2v-2h-2zM292 74h2v-2h-2zM607 79h2v-2h-2z"/><path fill="#9899FF" fill-opacity=".66" d="M712 129h2v-2h-2zM712 120h2v-2h-2zM712 115h2v-2h-2zM712 110h2v-2h-2zM712 105h2v-2h-2zM742 130h2v-2h-2zM742 125h2v-2h-2zM787 117h2v-2h-2zM787 104h2v-2h-2zM787 95h2v-2h-2zM787 90h2v-2h-2zM787 85h2v-2h-2zM787 80h2v-2h-2zM907 104h2v-2h-2zM967 116h2v-2h-2zM967 121h2v-2h-2zM967 111h2v-2h-2zM967 106h2v-2h-2zM982 103h2v-2h-2zM982 98h2v-2h-2zM982 93h2v-2h-2zM982 84h2v-2h-2zM982 79h2v-2h-2zM1027 121h2v-2h-2zM1042 126h2v-2h-2zM1042 116h2v-2h-2zM1042 111h2v-2h-2zM1027 106h2v-2h-2zM1027 101h2v-2h-2zM1027 126h2v-2h-2zM1027 116h2v-2h-2zM1027 111h2v-2h-2zM1042 101h2v-2h-2zM1042 96h2v-2h-2zM1057 127h2v-2h-2zM1042 121h2v-2h-2zM1132 96h2v-2h-2zM1192 126h2v-2h-2zM1207 78h2v-2h-2z"/><path fill="#9899FF" fill-opacity=".25" d="M1072 123h2v-2h-2zM1057 117h2v-2h-2zM1072 108h2v-2h-2zM1072 98h2v-2h-2zM1072 93h2v-2h-2zM1072 88h2v-2h-2zM1072 83h2v-2h-2zM1072 78h2v-2h-2zM1117 115h2v-2h-2zM1132 128h2v-2h-2zM1132 111h2v-2h-2zM1132 106h2v-2h-2zM1132 101h2v-2h-2zM1192 121h2v-2h-2zM1192 116h2v-2h-2zM1207 93h2v-2h-2zM1207 88h2v-2h-2zM1207 83h2v-2h-2z"/><path fill="#9899FF" fill-opacity=".8" d="M1252 128h2v-2h-2zM1252 123h2v-2h-2zM1252 118h2v-2h-2z"/><path fill="#9899FF" fill-opacity=".25" d="M1312 126h2v-2h-2zM1312 121h2v-2h-2zM1312 111h2v-2h-2zM1477 90h2v-2h-2zM1687 86h2v-2h-2zM1627 85h2v-2h-2zM1732 85h2v-2h-2zM1852 84h2v-2h-2z"/><path fill="#9899FF" fill-opacity=".9" d="M1867 130h2v-2h-2z"/><path fill="#9899FF" fill-opacity=".25" d="M2032 130h2v-2h-2zM2047 130h2v-2h-2zM1942 128h2v-2h-2zM1957 125h2v-2h-2zM2002 125h2v-2h-2zM1957 130h2v-2h-2zM2017 130h2v-2h-2z"/><path fill="#9899FF" d="M1763.5 130h-1v-1h1zM2003.5 129h-1v-1h1zM1808.5 128h-1v-1h1z"/><path fill="#9899FF" fill-opacity=".9" d="M1838.5 128h-1v-1h1z"/><path fill="#9899FF" d="M1988.5 128h-1v-1h1z"/><path fill="#9899FF" fill-opacity=".9" d="M1853.5 127h-1v-1h1z"/><path fill="#9899FF" d="M1868.5 125h-1v-1h1zM1973.5 125h-1v-1h1zM2033.5 125h-1v-1h1zM1988.5 124h-1v-1h1zM1898.5 122h-1v-1h1zM2033.5 121h-1v-1h1zM1958.5 120h-1v-1h1zM2003.5 120h-1v-1h1zM2048.5 120h-1v-1h1zM2033.5 117h-1v-1h1zM1958.5 116h-1v-1h1zM1988.5 116h-1v-1h1zM2033.5 113h-1v-1h1zM1973.5 112h-1v-1h1zM2018.5 112h-1v-1h1zM2033.5 109h-1v-1h1zM1928.5 108h-1v-1h1zM1973.5 108h-1v-1h1zM2018.5 108h-1v-1h1zM2033.5 105h-1v-1h1zM1973.5 104h-1v-1h1zM1658.5 130h-1v-1h1zM1688.5 130h-1v-1h1zM1643.5 128h-1v-1h1zM1733.5 128h-1v-1h1zM1703.5 127h-1v-1h1zM1823.5 127h-1v-1h1zM1763.5 126h-1v-1h1zM1883.5 125h-1v-1h1zM1808.5 124h-1v-1h1zM1928.5 124h-1v-1h1z"/><path fill="#9899FF" fill-opacity=".9" d="M1853.5 123h-1v-1h1z"/><path fill="#9899FF" d="M1943.5 123h-1v-1h1zM1928.5 120h-1v-1h1zM1988.5 120h-1v-1h1zM2018.5 120h-1v-1h1zM1943.5 119h-1v-1h1zM1973.5 116h-1v-1h1zM2018.5 116h-1v-1h1zM1943.5 115h-1v-1h1zM1928.5 112h-1v-1h1zM1958.5 112h-1v-1h1zM1943.5 111h-1v-1h1zM1958.5 108h-1v-1h1zM1943.5 107h-1v-1h1zM1898.5 106h-1v-1h1zM1958.5 104h-1v-1h1zM2018.5 104h-1v-1h1zM1688.5 126h-1v-1h1zM1778.5 126h-1v-1h1zM1733.5 124h-1v-1h1zM1718.5 123h-1v-1h1zM1823.5 123h-1v-1h1zM1868.5 121h-1v-1h1zM1793.5 120h-1v-1h1z"/><path fill="#9899FF" fill-opacity=".9" d="M1838.5 119h-1v-1h1z"/><path fill="#9899FF" d="M1898.5 118h-1v-1h1zM1928.5 116h-1v-1h1zM1898.5 114h-1v-1h1zM1898.5 110h-1v-1h1z"/><path fill="#9899FF" fill-opacity=".9" d="M1853.5 109h-1v-1h1zM1853.5 105h-1v-1h1z"/><path fill="#9899FF" d="M1898.5 102h-1v-1h1z"/><path fill="#9899FF" fill-opacity=".9" d="M1853.5 101h-1v-1h1z"/><path fill="#9899FF" d="M2033.5 101h-1v-1h1z"/><path fill="#9899FF" fill-opacity=".9" d="M1838.5 115h-1v-1h1z"/><path fill="#9899FF" d="M1718.5 115h-1v-1h1zM1748.5 118h-1v-1h1zM1718.5 119h-1v-1h1zM1688.5 122h-1v-1h1zM1643.5 124h-1v-1h1zM1658.5 126h-1v-1h1zM1628.5 128h-1v-1h1zM1508.5 129h-1v-1h1zM1568.5 128h-1v-1h1zM1598.5 128h-1v-1h1zM1613.5 127h-1v-1h1zM1628.5 124h-1v-1h1zM1703.5 123h-1v-1h1zM1748.5 122h-1v-1h1zM1628.5 120h-1v-1h1zM1733.5 120h-1v-1h1zM1688.5 118h-1v-1h1zM1778.5 117h-1v-1h1zM1733.5 116h-1v-1h1zM1778.5 113h-1v-1h1zM1688.5 110h-1v-1h1zM1628.5 116h-1v-1h1zM1508.5 125h-1v-1h1zM1433.5 130h-1v-1h1zM1448.5 129h-1v-1h1zM1478.5 129h-1v-1h1zM1463.5 127h-1v-1h1zM1538.5 126h-1v-1h1zM1478.5 125h-1v-1h1zM1523.5 124h-1v-1h1zM1538.5 122h-1v-1h1zM1553.5 122h-1v-1h1zM1523.5 120h-1v-1h1zM1568.5 119h-1v-1h1zM1598.5 119h-1v-1h1zM1553.5 118h-1v-1h1zM1658.5 117h-1v-1h1zM1598.5 115h-1v-1h1zM1688.5 114h-1v-1h1zM1613.5 113h-1v-1h1zM1658.5 113h-1v-1h1zM1733.5 112h-1v-1h1zM1718.5 111h-1v-1h1zM1613.5 109h-1v-1h1zM1478.5 116h-1v-1h1zM1463.5 118h-1v-1h1zM1433.5 121h-1v-1h1zM1448.5 120h-1v-1h1zM1433.5 117h-1v-1h1zM1448.5 116h-1v-1h1zM1523.5 116h-1v-1h1zM1463.5 114h-1v-1h1zM1433.5 113h-1v-1h1zM1538.5 113h-1v-1h1zM1478.5 112h-1v-1h1zM1463.5 110h-1v-1h1zM1568.5 110h-1v-1h1zM1538.5 109h-1v-1h1zM1478.5 108h-1v-1h1zM1628.5 107h-1v-1h1zM1538.5 105h-1v-1h1zM1613.5 105h-1v-1h1zM1553.5 104h-1v-1h1zM1553.5 100h-1v-1h1zM1958.5 100h-1v-1h1zM2018.5 100h-1v-1h1zM1733.5 98h-1v-1h1zM1898.5 98h-1v-1h1z"/><path fill="#9899FF" fill-opacity=".9" d="M1853.5 97h-1v-1h1z"/><path fill="#9899FF" d="M2018.5 96h-1v-1h1zM1973.5 95h-1v-1h1zM1898.5 94h-1v-1h1zM1388.5 130h-1v-1h1zM1388.5 126h-1v-1h1zM1388.5 122h-1v-1h1zM1388.5 118h-1v-1h1zM1628.5 93h-1v-1h1zM1478.5 94h-1v-1h1zM1613.5 91h-1v-1h1zM1628.5 89h-1v-1h1zM1658.5 89h-1v-1h1zM1733.5 89h-1v-1h1z"/><path fill="#9899FF" fill-opacity=".9" d="M1853.5 88h-1v-1h1z"/><path fill="#9899FF" d="M1898.5 85h-1v-1h1zM1973.5 77h-1v-1h1zM1853.5 79h-1v-1h1zM1973.5 81h-1v-1h1zM1898.5 81h-1v-1h1zM1478.5 85h-1v-1h1zM1898.5 77h-1v-1h1zM1733.5 80h-1v-1h1zM1688.5 81h-1v-1h1zM1373.5 130h-1v-1h1zM1373.5 126h-1v-1h1zM1373.5 122h-1v-1h1zM1373.5 118h-1v-1h1zM1373.5 114h-1v-1h1zM1373.5 110h-1v-1h1zM1478.5 81h-1v-1h1zM1853.5 75h-1v-1h1zM1628.5 80h-1v-1h1zM1688.5 77h-1v-1h1zM1478.5 77h-1v-1h1zM1298.5 118h-1v-1h1zM1298.5 114h-1v-1h1zM1298.5 110h-1v-1h1zM1298.5 106h-1v-1h1zM1298.5 102h-1v-1h1zM1298.5 130h-1v-1h1zM1298.5 126h-1v-1h1zM1298.5 122h-1v-1h1zM1283.5 122h-1v-1h1zM1253.5 113h-1v-1h1zM1238.5 97h-1v-1h1zM1238.5 93h-1v-1h1zM1238.5 85h-1v-1h1zM1238.5 81h-1v-1h1zM1238.5 77h-1v-1h1zM1238.5 89h-1v-1h1zM1238.5 130h-1v-1h1zM1238.5 126h-1v-1h1zM1208.5 129h-1v-1h1zM1208.5 125h-1v-1h1zM1208.5 121h-1v-1h1zM1208.5 117h-1v-1h1zM1208.5 113h-1v-1h1zM1208.5 109h-1v-1h1zM1208.5 105h-1v-1h1zM1208.5 101h-1v-1h1zM1208.5 97h-1v-1h1zM1193.5 111h-1v-1h1zM1178.5 129h-1v-1h1zM1178.5 125h-1v-1h1zM1178.5 121h-1v-1h1zM1178.5 117h-1v-1h1zM1178.5 113h-1v-1h1zM1178.5 109h-1v-1h1zM1178.5 105h-1v-1h1zM1178.5 101h-1v-1h1zM1178.5 97h-1v-1h1zM1178.5 93h-1v-1h1zM1163.5 128h-1v-1h1zM1163.5 124h-1v-1h1zM1163.5 120h-1v-1h1zM1163.5 116h-1v-1h1zM1163.5 112h-1v-1h1zM1163.5 108h-1v-1h1zM1163.5 104h-1v-1h1zM1163.5 100h-1v-1h1zM1163.5 96h-1v-1h1zM1163.5 92h-1v-1h1zM1163.5 88h-1v-1h1zM1148.5 130h-1v-1h1zM1148.5 126h-1v-1h1zM1148.5 122h-1v-1h1zM1148.5 118h-1v-1h1zM1148.5 114h-1v-1h1zM1148.5 110h-1v-1h1zM1148.5 106h-1v-1h1zM1148.5 102h-1v-1h1zM1148.5 98h-1v-1h1zM1148.5 94h-1v-1h1zM1148.5 90h-1v-1h1zM1148.5 86h-1v-1h1zM1133.5 123h-1v-1h1zM1133.5 119h-1v-1h1zM1133.5 115h-1v-1h1zM1103.5 129h-1v-1h1zM1103.5 125h-1v-1h1zM1103.5 121h-1v-1h1zM1103.5 117h-1v-1h1zM1103.5 113h-1v-1h1zM1103.5 109h-1v-1h1zM1103.5 105h-1v-1h1zM1103.5 101h-1v-1h1zM1088.5 130h-1v-1h1zM1088.5 126h-1v-1h1zM1088.5 117h-1v-1h1zM1088.5 113h-1v-1h1zM1088.5 109h-1v-1h1zM1088.5 105h-1v-1h1zM1088.5 101h-1v-1h1z"/><path fill="#9899FF" fill-opacity=".9" d="M1884 130h-2v-2h2zM1974 130h-2v-2h2zM1794 130h-2v-2h2zM1929 129h-2v-2h2zM1899 127h-2v-2h2zM2019 125h-2v-2h2zM2049 125h-2v-2h2zM1974 121h-2v-2h2zM1719 128h-2v-2h2zM1749 127h-2v-2h2zM1794 125h-2v-2h2zM1839 124h-2v-2h2zM1779 122h-2v-2h2zM1809 120h-2v-2h2zM1854 119h-2v-2h2zM1854 114h-2v-2h2zM1659 122h-2v-2h2zM1599 124h-2v-2h2zM1524 129h-2v-2h2zM1554 127h-2v-2h2zM1569 124h-2v-2h2zM1614 123h-2v-2h2zM1614 118h-2v-2h2zM1839 111h-2v-2h2zM1779 109h-2v-2h2zM1779 104h-2v-2h2z"/><path fill="#9899FF" fill-opacity=".5" d="M1434 109h-2v-2h2zM1464 106h-2v-2h2zM1614 101h-2v-2h2zM1974 100h-2v-2h2zM2034 97h-2v-2h2zM2019 92h-2v-2h2zM1629 98h-2v-2h2zM1479 99h-2v-2h2zM1539 101h-2v-2h2zM1434 104h-2v-2h2zM1479 104h-2v-2h2zM1659 99h-2v-2h2zM1689 96h-2v-2h2z"/><path fill="#9899FF" fill-opacity=".9" d="M1854 93h-2v-2h2z"/><path fill="#9899FF" fill-opacity=".5" d="M1974 86h-2v-2h2zM1344 101h-2v-2h2z"/><path fill="#9899FF" d="M954 129h-2v-2h2zM924 126h-2v-2h2zM909 123h-2v-2h2zM909 118h-2v-2h2zM909 113h-2v-2h2zM879 127h-2v-2h2zM699 114h-2v-2h2zM699 109h-2v-2h2zM699 104h-2v-2h2zM699 99h-2v-2h2zM609 92h-2v-2h2zM549 92h-2v-2h2zM519 92h-2v-2h2zM99 83h-2v-2h2zM264 92h-2v-2h2zM99 88h-2v-2h2zM609 97h-2v-2h2zM159 93h-2v-2h2zM99 93h-2v-2h2zM294 92h-2v-2h2zM384 117h-2v-2h2zM519 121h-2v-2h2zM534 122h-2v-2h2zM594 125h-2v-2h2zM609 122h-2v-2h2zM549 121h-2v-2h2zM459 121h-2v-2h2zM594 130h-2v-2h2zM579 130h-2v-2h2zM549 130h-2v-2h2zM519 130h-2v-2h2zM489 127h-2v-2h2z"/></g></svg>