<svg width="99" height="55" xmlns="http://www.w3.org/2000/svg"><g fill-rule="nonzero" fill="none" opacity=".5"><path d="M57.4 34.9c.2-.1 2.3-.8 2.4-.7l-.5 2.3-2-1.6h.1zM99 7.5l-.7-1.4V6c-.1-.1-.1-.1-.2 0l-1.2 1v.2l.2.4.7 1.2.3-.4.6-.6.2-.2v-.1h.1z" fill="#E6E6E6"/><path d="M0 22c.2-.3 1.4-2.1 1.5-2l1 2H0zm74 20c.2-.3 1.4-2.1 1.5-2l1 2H74zM40 52.7a26 26 0 0 1-1.2-1.3l-1 1.3v.2l.3.3.8 1h.1l.2-.4.4-.5.1-.2.2-.2v-.2h.1zM52.1 3l.1-.1.4-2-.6-.1-1.2-.3h-.1v.1c0 .7-.2 1.3-.4 2 .6 0 1.3.2 1.8.4z" fill="#C4FCF5"/></g></svg>