<svg width="118" height="118" xmlns="http://www.w3.org/2000/svg"><defs><linearGradient x1="0%" y1="100%" y2="0%" id="a"><stop stop-color="#09F9FC" offset="0%"/><stop stop-color="#9899FF" offset="100%"/></linearGradient></defs><g fill="none" fill-rule="evenodd"><path fill="#FFF" d="M0 0h99L74 118H0z"/><path fill="url(#a)" d="M103 0h15L93 118H78z"/><path d="M30 98V64h15c1.6 0 3 .3 4.4 1a11.2 11.2 0 0 1 3.4 2.6 12.2 12.2 0 0 1 2.3 3.6 11.3 11.3 0 0 1-.8 10.1 9.5 9.5 0 0 1-4.5 4L57.6 98H50l-7-11.4h-6.5V98H30zm6.6-17.2H45c.6 0 1.2-.1 1.7-.4.6-.3 1-.7 1.4-1.2l1-1.7a6.8 6.8 0 0 0 .2-2.2c0-.8 0-1.5-.3-2.2a5.8 5.8 0 0 0-1-1.7 4.7 4.7 0 0 0-1.6-1.2 3.9 3.9 0 0 0-1.7-.4h-8v11zM30 54.1V20h15c1.6 0 3 .3 4.4 1a11.2 11.2 0 0 1 3.4 2.6 12.2 12.2 0 0 1 2.3 3.6 11.3 11.3 0 0 1-.8 10.1 9.5 9.5 0 0 1-4.5 4L57.6 54H50l-7-11.4h-6.5V54H30zm6.6-17.3H45c.6 0 1.2-.1 1.7-.4.6-.3 1-.7 1.4-1.2l1-1.7a6.8 6.8 0 0 0 .2-2.2c0-.8 0-1.5-.3-2.2a5.8 5.8 0 0 0-1-1.7 4.7 4.7 0 0 0-1.6-1.2 3.9 3.9 0 0 0-1.7-.4h-8v11z" fill="#2A2B4D"/></g></svg>